<?xml version="1.0" encoding="UTF-8" standalone="no"?>
<!DOCTYPE svg PUBLIC "-//W3C//DTD SVG 1.1//EN"
 "http://www.w3.org/Graphics/SVG/1.1/DTD/svg11.dtd">
<!-- Generated by graphviz version 14.0.2 (20251019.1705)
 -->
<!-- Pages: 1 -->
<svg width="981pt" height="508pt"
 viewBox="0.00 0.00 981.00 508.00" xmlns="http://www.w3.org/2000/svg" xmlns:xlink="http://www.w3.org/1999/xlink">
<g id="graph0" class="graph" transform="scale(1 1) rotate(0) translate(4 504.43)">
<polygon fill="white" stroke="none" points="-4,4 -4,-504.43 977,-504.43 977,4 -4,4"/>
<!-- x -->
<g id="node1" class="node">
<title>x</title>
<polygon fill="lightgray" stroke="black" points="907.25,-424.78 886.75,-424.78 886.75,-406.28 907.25,-406.28 907.25,-424.78"/>
<text xml:space="preserve" text-anchor="middle" x="897" y="-412.23" font-family="Times New Roman,serif" font-size="9.00">x</text>
</g>
<!-- No&#45;Op -->
<g id="node8" class="node">
<title>No&#45;Op</title>
<ellipse fill="lightblue" stroke="black" cx="360" cy="-29.34" rx="29.34" ry="29.34"/>
<text xml:space="preserve" text-anchor="middle" x="360" y="-26.04" font-family="Times New Roman,serif" font-size="9.00">No&#45;Op</text>
</g>
<!-- x&#45;&gt;No&#45;Op -->
<g id="edge14" class="edge">
<title>x&#45;&gt;No&#45;Op</title>
<path fill="none" stroke="red" stroke-width="0.17" stroke-dasharray="1,5" d="M899.17,-405.89C904.01,-385.35 914.66,-332.05 907,-288.31 887.34,-176.09 844,-138.92 739,-94.69 622.34,-45.55 470.5,-33.9 399.65,-31.17"/>
<polygon fill="red" stroke="red" stroke-width="0.17" points="400.16,-27.68 390.05,-30.83 399.92,-34.68 400.16,-27.68"/>
</g>
<!-- Left -->
<g id="node9" class="node">
<title>Left</title>
<ellipse fill="lightblue" stroke="black" cx="396" cy="-318.72" rx="21.39" ry="21.39"/>
<text xml:space="preserve" text-anchor="middle" x="396" y="-315.42" font-family="Times New Roman,serif" font-size="9.00">Left</text>
</g>
<!-- x&#45;&gt;Left -->
<g id="edge15" class="edge">
<title>x&#45;&gt;Left</title>
<path fill="none" stroke="green" stroke-width="0.24" stroke-dasharray="1,5" d="M886.45,-411.73C865.13,-406.13 815.34,-393.4 773,-385.12 670.16,-365.02 643.14,-367.61 540,-349.12 500.85,-342.11 456,-332.73 426.9,-326.48"/>
<polygon fill="green" stroke="green" stroke-width="0.24" points="427.79,-323.09 417.28,-324.4 426.31,-329.93 427.79,-323.09"/>
</g>
<!-- Main -->
<g id="node10" class="node">
<title>Main</title>
<ellipse fill="lightblue" stroke="black" cx="604" cy="-125.1" rx="24.57" ry="24.57"/>
<text xml:space="preserve" text-anchor="middle" x="604" y="-121.8" font-family="Times New Roman,serif" font-size="9.00">Main</text>
</g>
<!-- x&#45;&gt;Main -->
<g id="edge16" class="edge">
<title>x&#45;&gt;Main</title>
<path fill="none" stroke="green" stroke-width="0.19" stroke-dasharray="1,5" d="M897.62,-405.81C899.45,-372.77 901.34,-253.93 840,-191.5 786.17,-136.71 690.79,-126.68 639.31,-125.52"/>
<polygon fill="green" stroke="green" stroke-width="0.19" points="639.35,-122.02 629.31,-125.4 639.27,-129.02 639.35,-122.02"/>
</g>
<!-- y -->
<g id="node2" class="node">
<title>y</title>
<polygon fill="lightgray" stroke="black" points="764.25,-424.78 743.75,-424.78 743.75,-406.28 764.25,-406.28 764.25,-424.78"/>
<text xml:space="preserve" text-anchor="middle" x="754" y="-412.23" font-family="Times New Roman,serif" font-size="9.00">y</text>
</g>
<!-- y&#45;&gt;Left -->
<g id="edge17" class="edge">
<title>y&#45;&gt;Left</title>
<path fill="none" stroke="red" stroke-width="0.17" stroke-dasharray="1,5" d="M743.29,-411.69C695.62,-399.07 501.84,-347.75 426.33,-327.75"/>
<polygon fill="red" stroke="red" stroke-width="0.17" points="427.3,-324.39 416.74,-325.21 425.51,-331.15 427.3,-324.39"/>
</g>
<!-- y&#45;&gt;Main -->
<g id="edge39" class="edge">
<title>y&#45;&gt;Main</title>
<path fill="none" stroke="red" stroke-width="0.82" stroke-dasharray="1,5" d="M753.3,-405.88C750.32,-374.06 736.26,-261.67 682,-191.5 668.35,-173.85 649.2,-157.71 633.29,-145.87"/>
<polygon fill="red" stroke="red" stroke-width="0.82" points="635.52,-143.17 625.36,-140.15 631.42,-148.84 635.52,-143.17"/>
</g>
<!-- Right -->
<g id="node11" class="node">
<title>Right</title>
<ellipse fill="lightblue" stroke="black" cx="614" cy="-221.91" rx="25.1" ry="25.1"/>
<text xml:space="preserve" text-anchor="middle" x="614" y="-218.61" font-family="Times New Roman,serif" font-size="9.00">Right</text>
</g>
<!-- y&#45;&gt;Right -->
<g id="edge18" class="edge">
<title>y&#45;&gt;Right</title>
<path fill="none" stroke="green" stroke-width="0.1" stroke-dasharray="1,5" d="M751.64,-405.8C745.47,-384.16 727.22,-326.95 697,-288.31 682.24,-269.44 660.93,-252.79 643.6,-241.02"/>
<polygon fill="green" stroke="green" stroke-width="0.1" points="645.86,-238.32 635.59,-235.73 642,-244.16 645.86,-238.32"/>
</g>
<!-- theta -->
<g id="node3" class="node">
<title>theta</title>
<polygon fill="lightgray" stroke="black" points="560.25,-424.78 527.75,-424.78 527.75,-406.28 560.25,-406.28 560.25,-424.78"/>
<text xml:space="preserve" text-anchor="middle" x="544" y="-412.23" font-family="Times New Roman,serif" font-size="9.00">theta</text>
</g>
<!-- theta&#45;&gt;No&#45;Op -->
<g id="edge19" class="edge">
<title>theta&#45;&gt;No&#45;Op</title>
<path fill="none" stroke="red" stroke-width="1.1" stroke-dasharray="1,5" d="M539.81,-405.78C518.16,-360.57 418.37,-152.21 377.51,-66.91"/>
<polygon fill="red" stroke="red" stroke-width="1.1" points="380.69,-65.44 373.21,-57.93 374.37,-68.46 380.69,-65.44"/>
</g>
<!-- theta&#45;&gt;Left -->
<g id="edge20" class="edge">
<title>theta&#45;&gt;Left</title>
<path fill="none" stroke="red" stroke-width="0.18" stroke-dasharray="1,5" d="M536.8,-405.94C531.12,-399.56 522.71,-390.99 514,-385.12 480.64,-362.68 465.2,-370.28 431,-349.12 426.91,-346.59 422.8,-343.62 418.9,-340.54"/>
<polygon fill="red" stroke="red" stroke-width="0.18" points="421.42,-338.08 411.49,-334.39 416.95,-343.47 421.42,-338.08"/>
</g>
<!-- theta&#45;&gt;Main -->
<g id="edge21" class="edge">
<title>theta&#45;&gt;Main</title>
<path fill="none" stroke="green" stroke-width="0.14" stroke-dasharray="1,5" d="M560.64,-413.17C593.44,-409.48 665.97,-396.14 697,-349.12 737.41,-287.9 685.11,-254.78 648,-191.5 640.61,-178.9 631.73,-165.43 623.89,-154.01"/>
<polygon fill="green" stroke="green" stroke-width="0.14" points="626.83,-152.11 618.25,-145.89 621.08,-156.1 626.83,-152.11"/>
</g>
<!-- 111140 -->
<g id="node12" class="node">
<title>111140</title>
<ellipse fill="white" stroke="black" cx="658" cy="-318.72" rx="30.41" ry="30.41"/>
<text xml:space="preserve" text-anchor="middle" x="658" y="-315.42" font-family="Times New Roman,serif" font-size="9.00">111140</text>
</g>
<!-- theta&#45;&gt;111140 -->
<g id="edge1" class="edge">
<title>theta&#45;&gt;111140</title>
<path fill="none" stroke="red" stroke-width="0.38" d="M554.52,-405.78C570.86,-392.19 602.98,-365.48 627.12,-345.4"/>
<polygon fill="red" stroke="red" stroke-width="0.38" points="629.07,-348.33 634.52,-339.24 624.6,-342.95 629.07,-348.33"/>
</g>
<!-- 111803 -->
<g id="node19" class="node">
<title>111803</title>
<ellipse fill="white" stroke="black" cx="312" cy="-125.1" rx="30.41" ry="30.41"/>
<text xml:space="preserve" text-anchor="middle" x="312" y="-121.8" font-family="Times New Roman,serif" font-size="9.00">111803</text>
</g>
<!-- theta&#45;&gt;111803 -->
<g id="edge33" class="edge">
<title>theta&#45;&gt;111803</title>
<path fill="none" stroke="green" stroke-width="0.29" d="M532.58,-405.97C517.19,-394.14 489.38,-371.69 469,-349.12 446.81,-324.56 449.42,-311.71 426,-288.31 406.37,-268.7 393.08,-273.36 375,-252.31 352.48,-226.08 335.64,-190.4 325.06,-163.67"/>
<polygon fill="green" stroke="green" stroke-width="0.29" points="328.46,-162.75 321.61,-154.67 321.92,-165.26 328.46,-162.75"/>
</g>
<!-- vx -->
<g id="node4" class="node">
<title>vx</title>
<polygon fill="lightgray" stroke="black" points="261.5,-500.43 236.5,-500.43 236.5,-481.93 261.5,-481.93 261.5,-500.43"/>
<text xml:space="preserve" text-anchor="middle" x="249" y="-487.88" font-family="Times New Roman,serif" font-size="9.00">vx</text>
</g>
<!-- vx&#45;&gt;No&#45;Op -->
<g id="edge22" class="edge">
<title>vx&#45;&gt;No&#45;Op</title>
<path fill="none" stroke="green" stroke-width="0.18" stroke-dasharray="1,5" d="M236.16,-489.98C207.4,-488.87 137.08,-482.33 95,-445.93 48.45,-405.66 38,-381.27 38,-319.72 38,-319.72 38,-319.72 38,-220.91 38,-90.91 234.76,-47.71 320.66,-35.04"/>
<polygon fill="green" stroke="green" stroke-width="0.18" points="320.89,-38.54 330.31,-33.68 319.91,-31.61 320.89,-38.54"/>
</g>
<!-- vx&#45;&gt;Left -->
<g id="edge23" class="edge">
<title>vx&#45;&gt;Left</title>
<path fill="none" stroke="red" stroke-width="0.26" stroke-dasharray="1,5" d="M249.86,-481.7C252.24,-462.23 260.63,-413.84 287,-385.12 312.82,-357 333.4,-370.55 365,-349.12 368.13,-347 371.25,-344.56 374.23,-342"/>
<polygon fill="red" stroke="red" stroke-width="0.26" points="376.42,-344.74 381.43,-335.4 371.69,-339.58 376.42,-344.74"/>
</g>
<!-- vx&#45;&gt;Main -->
<g id="edge35" class="edge">
<title>vx&#45;&gt;Main</title>
<path fill="none" stroke="green" stroke-width="0.31" d="M247.57,-481.73C242.84,-450.74 231.08,-342.32 287,-288.31 326.74,-249.93 357.35,-278.52 406,-252.31 443.18,-232.28 443.87,-214.94 479,-191.5 509.17,-171.37 546.26,-152.65 572.17,-140.43"/>
<polygon fill="green" stroke="green" stroke-width="0.31" points="573.51,-143.68 581.09,-136.28 570.55,-137.33 573.51,-143.68"/>
</g>
<!-- 124369 -->
<g id="node17" class="node">
<title>124369</title>
<ellipse fill="white" stroke="black" cx="326" cy="-415.53" rx="30.41" ry="30.41"/>
<text xml:space="preserve" text-anchor="middle" x="326" y="-412.23" font-family="Times New Roman,serif" font-size="9.00">124369</text>
</g>
<!-- vx&#45;&gt;124369 -->
<g id="edge29" class="edge">
<title>vx&#45;&gt;124369</title>
<path fill="none" stroke="green" stroke-width="0.37" d="M258.14,-481.45C267.68,-472.31 283.16,-457.51 296.92,-444.34"/>
<polygon fill="green" stroke="green" stroke-width="0.37" points="299.14,-447.07 303.94,-437.63 294.3,-442.01 299.14,-447.07"/>
</g>
<!-- vy -->
<g id="node5" class="node">
<title>vy</title>
<polygon fill="lightgray" stroke="black" points="483.5,-500.43 458.5,-500.43 458.5,-481.93 483.5,-481.93 483.5,-500.43"/>
<text xml:space="preserve" text-anchor="middle" x="471" y="-487.88" font-family="Times New Roman,serif" font-size="9.00">vy</text>
</g>
<!-- vy&#45;&gt;No&#45;Op -->
<g id="edge24" class="edge">
<title>vy&#45;&gt;No&#45;Op</title>
<path fill="none" stroke="red" stroke-width="0.33" stroke-dasharray="1,5" d="M483.6,-489.68C552.3,-486.81 879.9,-471.86 916,-445.93 965.99,-410.03 973,-381.27 973,-319.72 973,-319.72 973,-319.72 973,-220.91 973,-127.52 891.24,-130.54 805,-94.69 664.45,-36.26 479.83,-29.51 399.82,-29.61"/>
<polygon fill="red" stroke="red" stroke-width="0.33" points="400.17,-26.11 390.19,-29.66 400.21,-33.11 400.17,-26.11"/>
</g>
<!-- vy&#45;&gt;Left -->
<g id="edge25" class="edge">
<title>vy&#45;&gt;Left</title>
<path fill="none" stroke="red" stroke-width="0.53" stroke-dasharray="1,5" d="M474.74,-481.7C482.36,-463.06 497.62,-417.57 481,-385.12 468.52,-360.75 452.61,-365.94 431,-349.12 427.41,-346.33 423.67,-343.31 420.02,-340.3"/>
<polygon fill="red" stroke="red" stroke-width="0.53" points="422.35,-337.69 412.44,-333.96 417.86,-343.06 422.35,-337.69"/>
</g>
<!-- vy&#45;&gt;Main -->
<g id="edge26" class="edge">
<title>vy&#45;&gt;Main</title>
<path fill="none" stroke="red" stroke-width="0.39" stroke-dasharray="1,5" d="M483.69,-488.77C505.57,-485.57 549.86,-475.58 569,-445.93 583.66,-423.23 577.99,-410.61 569,-385.12 562.17,-365.75 546.83,-368.5 540,-349.12 531.01,-323.63 534.95,-314.86 540,-288.31 549.12,-240.33 572.16,-188.41 587.95,-156.56"/>
<polygon fill="red" stroke="red" stroke-width="0.39" points="590.96,-158.38 592.33,-147.88 584.71,-155.23 590.96,-158.38"/>
</g>
<!-- 108519 -->
<g id="node13" class="node">
<title>108519</title>
<ellipse fill="white" stroke="black" cx="326" cy="-318.72" rx="30.41" ry="30.41"/>
<text xml:space="preserve" text-anchor="middle" x="326" y="-315.42" font-family="Times New Roman,serif" font-size="9.00">108519</text>
</g>
<!-- vy&#45;&gt;108519 -->
<g id="edge36" class="edge">
<title>vy&#45;&gt;108519</title>
<path fill="none" stroke="green" stroke-width="0.3" stroke-dasharray="1,5" d="M458,-483.98C443.33,-476.5 419.39,-462.81 403,-445.93 399.29,-442.12 368.04,-390.22 346.51,-354.17"/>
<polygon fill="green" stroke="green" stroke-width="0.3" points="349.63,-352.57 341.5,-345.78 343.62,-356.16 349.63,-352.57"/>
</g>
<!-- 126928 -->
<g id="node16" class="node">
<title>126928</title>
<ellipse fill="white" stroke="black" cx="442" cy="-415.53" rx="30.41" ry="30.41"/>
<text xml:space="preserve" text-anchor="middle" x="442" y="-412.23" font-family="Times New Roman,serif" font-size="9.00">126928</text>
</g>
<!-- vy&#45;&gt;126928 -->
<g id="edge6" class="edge">
<title>vy&#45;&gt;126928</title>
<path fill="none" stroke="green" stroke-width="0.15" d="M467.56,-481.45C464.8,-474.44 460.73,-464.11 456.65,-453.73"/>
<polygon fill="green" stroke="green" stroke-width="0.15" points="459.93,-452.51 453.01,-444.49 453.42,-455.08 459.93,-452.51"/>
</g>
<!-- vy&#45;&gt;124369 -->
<g id="edge10" class="edge">
<title>vy&#45;&gt;124369</title>
<path fill="none" stroke="green" stroke-width="0.25" d="M458.22,-485.43C438.72,-477.98 400.56,-462.67 370,-445.93 366.47,-444 362.87,-441.87 359.31,-439.67"/>
<polygon fill="green" stroke="green" stroke-width="0.25" points="361.28,-436.77 350.98,-434.31 357.5,-442.66 361.28,-436.77"/>
</g>
<!-- v_theta -->
<g id="node6" class="node">
<title>v_theta</title>
<polygon fill="lightgray" stroke="black" points="125.75,-500.43 84.25,-500.43 84.25,-481.93 125.75,-481.93 125.75,-500.43"/>
<text xml:space="preserve" text-anchor="middle" x="105" y="-487.88" font-family="Times New Roman,serif" font-size="9.00">v_theta</text>
</g>
<!-- v_theta&#45;&gt;No&#45;Op -->
<g id="edge27" class="edge">
<title>v_theta&#45;&gt;No&#45;Op</title>
<path fill="none" stroke="green" stroke-width="0.2" stroke-dasharray="1,5" d="M87.44,-481.59C73.58,-473.97 54.68,-461.64 43,-445.93 7.63,-398.39 0,-378.98 0,-319.72 0,-319.72 0,-319.72 0,-220.91 0,-159.54 8.32,-133.32 56,-94.69 96.3,-62.04 247.58,-42.13 320.38,-34.25"/>
<polygon fill="green" stroke="green" stroke-width="0.2" points="320.64,-37.74 330.22,-33.21 319.91,-30.78 320.64,-37.74"/>
</g>
<!-- v_theta&#45;&gt;Left -->
<g id="edge28" class="edge">
<title>v_theta&#45;&gt;Left</title>
<path fill="none" stroke="red" stroke-width="0.12" stroke-dasharray="1,5" d="M118.99,-481.47C132.86,-472.73 154.65,-458.77 173,-445.93 209.89,-420.13 214.05,-405.86 254,-385.12 300.03,-361.23 320.42,-375.62 365,-349.12 368.42,-347.09 371.76,-344.62 374.92,-341.99"/>
<polygon fill="red" stroke="red" stroke-width="0.12" points="377.13,-344.7 382.16,-335.37 372.41,-339.53 377.13,-344.7"/>
</g>
<!-- 103923 -->
<g id="node18" class="node">
<title>103923</title>
<ellipse fill="white" stroke="black" cx="134" cy="-415.53" rx="30.41" ry="30.41"/>
<text xml:space="preserve" text-anchor="middle" x="134" y="-412.23" font-family="Times New Roman,serif" font-size="9.00">103923</text>
</g>
<!-- v_theta&#45;&gt;103923 -->
<g id="edge40" class="edge">
<title>v_theta&#45;&gt;103923</title>
<path fill="none" stroke="green" stroke-width="0.12" d="M108.44,-481.45C111.2,-474.44 115.27,-464.11 119.35,-453.73"/>
<polygon fill="green" stroke="green" stroke-width="0.12" points="122.6,-455.04 123.01,-444.45 116.09,-452.47 122.6,-455.04"/>
</g>
<!-- v_theta&#45;&gt;111803 -->
<g id="edge13" class="edge">
<title>v_theta&#45;&gt;111803</title>
<path fill="none" stroke="red" stroke-width="0.14" d="M101.94,-481.51C95.96,-463.22 84.24,-419.58 95,-385.12 127.62,-280.67 227.9,-190.92 279.93,-149.9"/>
<polygon fill="red" stroke="red" stroke-width="0.14" points="281.94,-152.77 287.68,-143.87 277.64,-147.25 281.94,-152.77"/>
</g>
<!-- speed -->
<g id="node7" class="node">
<title>speed</title>
<polygon fill="lightgray" stroke="black" points="856.12,-327.97 819.88,-327.97 819.88,-309.47 856.12,-309.47 856.12,-327.97"/>
<text xml:space="preserve" text-anchor="middle" x="838" y="-315.42" font-family="Times New Roman,serif" font-size="9.00">speed</text>
</g>
<!-- speed&#45;&gt;No&#45;Op -->
<g id="edge30" class="edge">
<title>speed&#45;&gt;No&#45;Op</title>
<path fill="none" stroke="red" stroke-width="0.88" stroke-dasharray="1,5" d="M841.06,-309.21C848.26,-287.59 863.94,-229.52 840,-191.5 791.42,-114.35 506.39,-56.41 400.01,-37.21"/>
<polygon fill="red" stroke="red" stroke-width="0.88" points="400.89,-33.81 390.43,-35.5 399.66,-40.7 400.89,-33.81"/>
</g>
<!-- speed&#45;&gt;Main -->
<g id="edge31" class="edge">
<title>speed&#45;&gt;Main</title>
<path fill="none" stroke="red" stroke-width="0.21" stroke-dasharray="1,5" d="M828.88,-309.08C822.55,-303.15 813.87,-295.13 806,-288.31 786.91,-271.76 779.23,-270.8 762,-252.31 739.43,-228.1 743.53,-213.73 719,-191.5 694.21,-169.04 660.4,-150.96 635.86,-139.55"/>
<polygon fill="red" stroke="red" stroke-width="0.21" points="637.46,-136.44 626.91,-135.5 634.57,-142.81 637.46,-136.44"/>
</g>
<!-- speed&#45;&gt;Right -->
<g id="edge32" class="edge">
<title>speed&#45;&gt;Right</title>
<path fill="none" stroke="red" stroke-width="0.23" stroke-dasharray="1,5" d="M819.67,-309.96C781.64,-293.86 693.76,-256.67 646.11,-236.5"/>
<polygon fill="red" stroke="red" stroke-width="0.23" points="647.76,-233.39 637.18,-232.72 645.03,-239.84 647.76,-233.39"/>
</g>
<!-- 125032 -->
<g id="node15" class="node">
<title>125032</title>
<ellipse fill="white" stroke="black" cx="801" cy="-221.91" rx="30.41" ry="30.41"/>
<text xml:space="preserve" text-anchor="middle" x="801" y="-218.61" font-family="Times New Roman,serif" font-size="9.00">125032</text>
</g>
<!-- speed&#45;&gt;125032 -->
<g id="edge4" class="edge">
<title>speed&#45;&gt;125032</title>
<path fill="none" stroke="red" stroke-width="0.69" d="M834.59,-308.97C830.31,-298.01 822.7,-278.52 815.81,-260.86"/>
<polygon fill="red" stroke="red" stroke-width="0.69" points="819.14,-259.76 812.24,-251.72 812.62,-262.31 819.14,-259.76"/>
</g>
<!-- 111140&#45;&gt;Right -->
<g id="edge2" class="edge">
<title>111140&#45;&gt;Right</title>
<path fill="none" stroke="red" stroke-width="0.35" stroke-dasharray="1,5" d="M645.39,-290.55C640.19,-279.35 634.13,-266.29 628.73,-254.65"/>
<polygon fill="red" stroke="red" stroke-width="0.35" points="631.99,-253.36 624.61,-245.77 625.64,-256.31 631.99,-253.36"/>
</g>
<!-- 108519&#45;&gt;Main -->
<g id="edge37" class="edge">
<title>108519&#45;&gt;Main</title>
<path fill="none" stroke="green" stroke-width="0.53" stroke-dasharray="1,5" d="M349.29,-298.65C354.58,-294.89 360.32,-291.21 366,-288.31 412.97,-264.39 435.66,-282.31 479,-252.31 507.31,-232.71 503.09,-216.28 527,-191.5 542.41,-175.52 561.41,-159.36 576.67,-147.1"/>
<polygon fill="green" stroke="green" stroke-width="0.53" points="578.44,-150.16 584.1,-141.21 574.09,-144.68 578.44,-150.16"/>
</g>
<!-- 109832 -->
<g id="node14" class="node">
<title>109832</title>
<ellipse fill="white" stroke="black" cx="293" cy="-221.91" rx="30.41" ry="30.41"/>
<text xml:space="preserve" text-anchor="middle" x="293" y="-218.61" font-family="Times New Roman,serif" font-size="9.00">109832</text>
</g>
<!-- 108519&#45;&gt;109832 -->
<g id="edge42" class="edge">
<title>108519&#45;&gt;109832</title>
<path fill="none" stroke="green" stroke-width="0.11" stroke-dasharray="1,5" d="M316.19,-289.53C313.02,-280.44 309.47,-270.22 306.11,-260.56"/>
<polygon fill="green" stroke="green" stroke-width="0.11" points="309.48,-259.61 302.89,-251.31 302.87,-261.91 309.48,-259.61"/>
</g>
<!-- 109832&#45;&gt;Main -->
<g id="edge43" class="edge">
<title>109832&#45;&gt;Main</title>
<path fill="none" stroke="green" stroke-width="0.46" d="M322.26,-211.99C380.29,-194.29 509.63,-154.86 570.77,-136.23"/>
<polygon fill="green" stroke="green" stroke-width="0.46" points="571.45,-139.68 580,-133.41 569.41,-132.98 571.45,-139.68"/>
</g>
<!-- 109832&#45;&gt;111803 -->
<g id="edge38" class="edge">
<title>109832&#45;&gt;111803</title>
<path fill="none" stroke="red" stroke-width="0.25" d="M298.86,-191.69C300.52,-183.4 302.35,-174.23 304.11,-165.45"/>
<polygon fill="red" stroke="red" stroke-width="0.25" points="307.52,-166.25 306.06,-155.76 300.66,-164.88 307.52,-166.25"/>
</g>
<!-- 125032&#45;&gt;Main -->
<g id="edge5" class="edge">
<title>125032&#45;&gt;Main</title>
<path fill="none" stroke="red" stroke-width="0.58" d="M776.37,-203.29C770.18,-199.19 763.46,-195 757,-191.5 717.18,-169.93 668.75,-150.25 637.19,-138.23"/>
<polygon fill="red" stroke="red" stroke-width="0.58" points="638.59,-135.02 627.99,-134.77 636.12,-141.57 638.59,-135.02"/>
</g>
<!-- 126928&#45;&gt;Left -->
<g id="edge7" class="edge">
<title>126928&#45;&gt;Left</title>
<path fill="none" stroke="red" stroke-width="0.46" d="M428.94,-387.61C422.95,-375.26 415.84,-360.6 409.76,-348.08"/>
<polygon fill="red" stroke="red" stroke-width="0.46" points="412.96,-346.66 405.45,-339.19 406.67,-349.72 412.96,-346.66"/>
</g>
<!-- 124369&#45;&gt;108519 -->
<g id="edge11" class="edge">
<title>124369&#45;&gt;108519</title>
<path fill="none" stroke="green" stroke-width="0.3" d="M326,-384.79C326,-376.85 326,-368.13 326,-359.74"/>
<polygon fill="green" stroke="green" stroke-width="0.3" points="329.5,-359.81 326,-349.81 322.5,-359.81 329.5,-359.81"/>
</g>
<!-- 103923&#45;&gt;No&#45;Op -->
<g id="edge41" class="edge">
<title>103923&#45;&gt;No&#45;Op</title>
<path fill="none" stroke="red" stroke-width="0.56" stroke-dasharray="1,5" d="M137.97,-384.97C142.07,-358.91 149.64,-320.23 162,-288.31 197.82,-195.81 207.05,-168.79 273,-94.69 288.32,-77.48 308.92,-62 326.23,-50.53"/>
<polygon fill="red" stroke="red" stroke-width="0.56" points="327.72,-53.74 334.22,-45.38 323.92,-47.86 327.72,-53.74"/>
</g>
<!-- 103923&#45;&gt;Main -->
<g id="edge9" class="edge">
<title>103923&#45;&gt;Main</title>
<path fill="none" stroke="green" stroke-width="0.28" d="M145.16,-386.84C158.08,-358.16 182.03,-314.01 216,-288.31 259.05,-255.74 282,-272.67 332,-252.31 387.01,-229.91 397.22,-216.7 451,-191.5 492.19,-172.2 540.59,-151.9 571.75,-139.13"/>
<polygon fill="green" stroke="green" stroke-width="0.28" points="572.91,-142.44 580.85,-135.42 570.26,-135.96 572.91,-142.44"/>
</g>
<!-- 103923&#45;&gt;Right -->
<g id="edge3" class="edge">
<title>103923&#45;&gt;Right</title>
<path fill="none" stroke="red" stroke-width="0.68" stroke-dasharray="1,5" d="M155.85,-394.19C190.77,-362.11 258.13,-301.98 287,-288.31 313.27,-275.87 499.52,-242.71 578.62,-228.98"/>
<polygon fill="red" stroke="red" stroke-width="0.68" points="578.76,-232.51 588.02,-227.35 577.57,-225.61 578.76,-232.51"/>
</g>
<!-- 103923&#45;&gt;108519 -->
<g id="edge12" class="edge">
<title>103923&#45;&gt;108519</title>
<path fill="none" stroke="red" stroke-width="0.44" d="M158,-396.89C164.31,-392.7 171.25,-388.48 178,-385.12 221.8,-363.36 238.2,-370.89 282,-349.12 285.69,-347.29 289.44,-345.2 293.11,-342.99"/>
<polygon fill="red" stroke="red" stroke-width="0.44" points="294.86,-346.02 301.44,-337.72 291.12,-340.11 294.86,-346.02"/>
</g>
<!-- 111803&#45;&gt;No&#45;Op -->
<g id="edge34" class="edge">
<title>111803&#45;&gt;No&#45;Op</title>
<path fill="none" stroke="green" stroke-width="0.51" d="M325.63,-97.48C330.72,-87.53 336.58,-76.08 342.01,-65.48"/>
<polygon fill="green" stroke="green" stroke-width="0.51" points="345.04,-67.24 346.48,-56.74 338.81,-64.05 345.04,-67.24"/>
</g>
<!-- 114461 -->
<g id="node20" class="node">
<title>114461</title>
<ellipse fill="white" stroke="black" cx="579" cy="-318.72" rx="30.41" ry="30.41"/>
<text xml:space="preserve" text-anchor="middle" x="579" y="-315.42" font-family="Times New Roman,serif" font-size="9.00">114461</text>
</g>
<!-- 114461&#45;&gt;Right -->
<g id="edge8" class="edge">
<title>114461&#45;&gt;Right</title>
<path fill="none" stroke="red" stroke-width="1.03" d="M589.31,-289.78C593.14,-279.41 597.53,-267.52 601.53,-256.68"/>
<polygon fill="red" stroke="red" stroke-width="1.03" points="604.81,-257.91 604.99,-247.32 598.24,-255.49 604.81,-257.91"/>
</g>
</g>
</svg>
