<?xml version="1.0" encoding="UTF-8" standalone="no"?>
<!DOCTYPE svg PUBLIC "-//W3C//DTD SVG 1.1//EN"
 "http://www.w3.org/Graphics/SVG/1.1/DTD/svg11.dtd">
<!-- Generated by graphviz version 14.0.2 (20251019.1705)
 -->
<!-- Pages: 1 -->
<svg width="546pt" height="245pt"
 viewBox="0.00 0.00 546.00 245.00" xmlns="http://www.w3.org/2000/svg" xmlns:xlink="http://www.w3.org/1999/xlink">
<g id="graph0" class="graph" transform="scale(1 1) rotate(0) translate(4 241.46)">
<polygon fill="white" stroke="none" points="-4,4 -4,-241.46 541.58,-241.46 541.58,4 -4,4"/>
<!-- x -->
<g id="node1" class="node">
<title>x</title>
<polygon fill="lightgray" stroke="black" points="135.7,-219.49 115.2,-219.49 115.2,-200.99 135.7,-200.99 135.7,-219.49"/>
<text xml:space="preserve" text-anchor="middle" x="125.45" y="-206.94" font-family="Times New Roman,serif" font-size="9.00">x</text>
</g>
<!-- No&#45;Op -->
<g id="node8" class="node">
<title>No&#45;Op</title>
<ellipse fill="lightblue" stroke="black" cx="48.45" cy="-116.61" rx="29.34" ry="29.34"/>
<text xml:space="preserve" text-anchor="middle" x="48.45" y="-113.31" font-family="Times New Roman,serif" font-size="9.00">No&#45;Op</text>
</g>
<!-- x&#45;&gt;No&#45;Op -->
<g id="edge1" class="edge">
<title>x&#45;&gt;No&#45;Op</title>
<path fill="none" stroke="green" stroke-width="0.33" stroke-dasharray="1,5" d="M118.35,-200.78C108.29,-188.82 89.4,-166.34 73.79,-147.76"/>
<polygon fill="green" stroke="green" stroke-width="0.33" points="76.55,-145.61 67.44,-140.2 71.19,-150.11 76.55,-145.61"/>
</g>
<!-- 120905 -->
<g id="node13" class="node">
<title>120905</title>
<ellipse fill="white" stroke="black" cx="199.45" cy="-116.61" rx="30.41" ry="30.41"/>
<text xml:space="preserve" text-anchor="middle" x="199.45" y="-113.31" font-family="Times New Roman,serif" font-size="9.00">120905</text>
</g>
<!-- x&#45;&gt;120905 -->
<g id="edge20" class="edge">
<title>x&#45;&gt;120905</title>
<path fill="none" stroke="green" stroke-width="0.22" d="M132.28,-200.78C141.8,-189 159.56,-167.01 174.43,-148.6"/>
<polygon fill="green" stroke="green" stroke-width="0.22" points="176.82,-151.21 180.38,-141.23 171.37,-146.81 176.82,-151.21"/>
</g>
<!-- y -->
<g id="node2" class="node">
<title>y</title>
<polygon fill="lightgray" stroke="black" points="58.7,-219.49 38.2,-219.49 38.2,-200.99 58.7,-200.99 58.7,-219.49"/>
<text xml:space="preserve" text-anchor="middle" x="48.45" y="-206.94" font-family="Times New Roman,serif" font-size="9.00">y</text>
</g>
<!-- y&#45;&gt;No&#45;Op -->
<g id="edge9" class="edge">
<title>y&#45;&gt;No&#45;Op</title>
<path fill="none" stroke="red" stroke-width="0.22" d="M48.45,-200.78C48.45,-190.58 48.45,-172.74 48.45,-156.19"/>
<polygon fill="red" stroke="red" stroke-width="0.22" points="51.95,-156.46 48.45,-146.46 44.95,-156.46 51.95,-156.46"/>
</g>
<!-- Right -->
<g id="node11" class="node">
<title>Right</title>
<ellipse fill="lightblue" stroke="black" cx="356.45" cy="-25.1" rx="25.1" ry="25.1"/>
<text xml:space="preserve" text-anchor="middle" x="356.45" y="-21.8" font-family="Times New Roman,serif" font-size="9.00">Right</text>
</g>
<!-- y&#45;&gt;Right -->
<g id="edge5" class="edge">
<title>y&#45;&gt;Right</title>
<path fill="none" stroke="red" stroke-width="0.46" stroke-dasharray="1,5" d="M40.96,-200.66C22.87,-178.91 -19.55,-120.85 10.45,-86.2 47.05,-43.94 204.59,-60.96 259.45,-50.2 280.38,-46.1 303.56,-40.39 322.02,-35.55"/>
<polygon fill="red" stroke="red" stroke-width="0.46" points="322.85,-38.95 331.62,-33 321.06,-32.18 322.85,-38.95"/>
</g>
<!-- 85431 -->
<g id="node15" class="node">
<title>85431</title>
<ellipse fill="white" stroke="black" cx="123.45" cy="-116.61" rx="27.22" ry="27.22"/>
<text xml:space="preserve" text-anchor="middle" x="123.45" y="-113.31" font-family="Times New Roman,serif" font-size="9.00">85431</text>
</g>
<!-- y&#45;&gt;85431 -->
<g id="edge14" class="edge">
<title>y&#45;&gt;85431</title>
<path fill="none" stroke="red" stroke-width="0.51" stroke-dasharray="1,5" d="M55.37,-200.78C65.37,-188.57 84.35,-165.38 99.74,-146.59"/>
<polygon fill="red" stroke="red" stroke-width="0.51" points="102.39,-148.87 106.02,-138.91 96.98,-144.43 102.39,-148.87"/>
</g>
<!-- theta -->
<g id="node3" class="node">
<title>theta</title>
<polygon fill="lightgray" stroke="black" points="192.7,-219.49 160.2,-219.49 160.2,-200.99 192.7,-200.99 192.7,-219.49"/>
<text xml:space="preserve" text-anchor="middle" x="176.45" y="-206.94" font-family="Times New Roman,serif" font-size="9.00">theta</text>
</g>
<!-- theta&#45;&gt;No&#45;Op -->
<g id="edge6" class="edge">
<title>theta&#45;&gt;No&#45;Op</title>
<path fill="none" stroke="green" stroke-width="0.21" stroke-dasharray="1,5" d="M166.62,-200.65C160.41,-195.36 152.14,-188.56 144.45,-183.02 120.15,-165.49 112.1,-164.05 87.45,-147.02 84.89,-145.24 82.25,-143.37 79.62,-141.46"/>
<polygon fill="green" stroke="green" stroke-width="0.21" points="81.71,-138.65 71.58,-135.54 77.55,-144.29 81.71,-138.65"/>
</g>
<!-- Left -->
<g id="node9" class="node">
<title>Left</title>
<ellipse fill="lightblue" stroke="black" cx="269.45" cy="-116.61" rx="21.39" ry="21.39"/>
<text xml:space="preserve" text-anchor="middle" x="269.45" y="-113.31" font-family="Times New Roman,serif" font-size="9.00">Left</text>
</g>
<!-- theta&#45;&gt;Left -->
<g id="edge13" class="edge">
<title>theta&#45;&gt;Left</title>
<path fill="none" stroke="red" stroke-width="0.19" d="M185.04,-200.78C199.07,-186.96 227.37,-159.08 247.32,-139.42"/>
<polygon fill="red" stroke="red" stroke-width="0.19" points="249.64,-142.05 254.3,-132.54 244.72,-137.06 249.64,-142.05"/>
</g>
<!-- vx -->
<g id="node4" class="node">
<title>vx</title>
<polygon fill="lightgray" stroke="black" points="406.95,-219.49 381.95,-219.49 381.95,-200.99 406.95,-200.99 406.95,-219.49"/>
<text xml:space="preserve" text-anchor="middle" x="394.45" y="-206.94" font-family="Times New Roman,serif" font-size="9.00">vx</text>
</g>
<!-- Main -->
<g id="node10" class="node">
<title>Main</title>
<ellipse fill="lightblue" stroke="black" cx="225.45" cy="-25.1" rx="24.57" ry="24.57"/>
<text xml:space="preserve" text-anchor="middle" x="225.45" y="-21.8" font-family="Times New Roman,serif" font-size="9.00">Main</text>
</g>
<!-- vx&#45;&gt;Main -->
<g id="edge7" class="edge">
<title>vx&#45;&gt;Main</title>
<path fill="none" stroke="red" stroke-width="0.16" stroke-dasharray="1,5" d="M388.84,-200.64C375.03,-179.8 337.71,-125.42 299.45,-86.2 285.35,-71.75 267.87,-57.41 253.45,-46.37"/>
<polygon fill="red" stroke="red" stroke-width="0.16" points="255.64,-43.64 245.54,-40.42 251.43,-49.23 255.64,-43.64"/>
</g>
<!-- vx&#45;&gt;Right -->
<g id="edge8" class="edge">
<title>vx&#45;&gt;Right</title>
<path fill="none" stroke="green" stroke-width="0.87" stroke-dasharray="1,5" d="M392.87,-200.57C389.18,-180.43 379.6,-128.98 370.45,-86.2 368.7,-77.99 366.7,-69.18 364.78,-60.89"/>
<polygon fill="green" stroke="green" stroke-width="0.87" points="368.23,-60.26 362.54,-51.32 361.41,-61.85 368.23,-60.26"/>
</g>
<!-- 106583 -->
<g id="node14" class="node">
<title>106583</title>
<ellipse fill="white" stroke="black" cx="452.45" cy="-116.61" rx="30.41" ry="30.41"/>
<text xml:space="preserve" text-anchor="middle" x="452.45" y="-113.31" font-family="Times New Roman,serif" font-size="9.00">106583</text>
</g>
<!-- vx&#45;&gt;106583 -->
<g id="edge2" class="edge">
<title>vx&#45;&gt;106583</title>
<path fill="none" stroke="red" stroke-width="0.32" stroke-dasharray="1,5" d="M399.81,-200.78C406.89,-189.59 419.8,-169.19 431.07,-151.4"/>
<polygon fill="red" stroke="red" stroke-width="0.32" points="433.78,-153.65 436.18,-143.33 427.87,-149.9 433.78,-153.65"/>
</g>
<!-- vy -->
<g id="node5" class="node">
<title>vy</title>
<polygon fill="lightgray" stroke="black" points="456.95,-219.49 431.95,-219.49 431.95,-200.99 456.95,-200.99 456.95,-219.49"/>
<text xml:space="preserve" text-anchor="middle" x="444.45" y="-206.94" font-family="Times New Roman,serif" font-size="9.00">vy</text>
</g>
<!-- vy&#45;&gt;106583 -->
<g id="edge4" class="edge">
<title>vy&#45;&gt;106583</title>
<path fill="none" stroke="green" stroke-width="0.55" d="M445.19,-200.78C446.05,-190.9 447.54,-173.83 448.95,-157.72"/>
<polygon fill="green" stroke="green" stroke-width="0.55" points="452.4,-158.46 449.78,-148.19 445.43,-157.85 452.4,-158.46"/>
</g>
<!-- v_theta -->
<g id="node6" class="node">
<title>v_theta</title>
<polygon fill="lightgray" stroke="black" points="255.2,-219.49 213.7,-219.49 213.7,-200.99 255.2,-200.99 255.2,-219.49"/>
<text xml:space="preserve" text-anchor="middle" x="234.45" y="-206.94" font-family="Times New Roman,serif" font-size="9.00">v_theta</text>
</g>
<!-- v_theta&#45;&gt;Left -->
<g id="edge17" class="edge">
<title>v_theta&#45;&gt;Left</title>
<path fill="none" stroke="green" stroke-width="0.57" d="M237.68,-200.78C242.32,-188.65 251.08,-165.71 258.23,-146.99"/>
<polygon fill="green" stroke="green" stroke-width="0.57" points="261.5,-148.25 261.8,-137.66 254.96,-145.75 261.5,-148.25"/>
</g>
<!-- v_theta&#45;&gt;Right -->
<g id="edge10" class="edge">
<title>v_theta&#45;&gt;Right</title>
<path fill="none" stroke="green" stroke-width="1.03" stroke-dasharray="1,5" d="M245.79,-200.58C259.81,-189.42 283.76,-168.82 299.45,-147.02 318.94,-119.94 334.51,-85.16 344.42,-59.85"/>
<polygon fill="green" stroke="green" stroke-width="1.03" points="347.6,-61.35 347.89,-50.76 341.06,-58.86 347.6,-61.35"/>
</g>
<!-- v_theta&#45;&gt;120905 -->
<g id="edge18" class="edge">
<title>v_theta&#45;&gt;120905</title>
<path fill="none" stroke="green" stroke-width="0.45" d="M231.22,-200.78C227.23,-190.34 220.18,-171.88 213.74,-155"/>
<polygon fill="green" stroke="green" stroke-width="0.45" points="217.12,-154.05 210.28,-145.95 210.58,-156.54 217.12,-154.05"/>
</g>
<!-- v_theta&#45;&gt;85431 -->
<g id="edge16" class="edge">
<title>v_theta&#45;&gt;85431</title>
<path fill="none" stroke="red" stroke-width="0.49" d="M224.21,-200.78C208.05,-187.45 176.07,-161.04 152.45,-141.54"/>
<polygon fill="red" stroke="red" stroke-width="0.49" points="154.68,-138.85 144.74,-135.19 150.23,-144.25 154.68,-138.85"/>
</g>
<!-- speed -->
<g id="node7" class="node">
<title>speed</title>
<polygon fill="lightgray" stroke="black" points="537.58,-125.86 501.33,-125.86 501.33,-107.36 537.58,-107.36 537.58,-125.86"/>
<text xml:space="preserve" text-anchor="middle" x="519.45" y="-113.31" font-family="Times New Roman,serif" font-size="9.00">speed</text>
</g>
<!-- speed&#45;&gt;Right -->
<g id="edge11" class="edge">
<title>speed&#45;&gt;Right</title>
<path fill="none" stroke="green" stroke-width="0.74" stroke-dasharray="1,5" d="M512.83,-107.01C507.57,-100.63 499.75,-92.06 491.45,-86.2 460.04,-64.04 419.14,-47.23 390.63,-37.1"/>
<polygon fill="green" stroke="green" stroke-width="0.74" points="392.01,-33.88 381.42,-33.92 389.72,-40.49 392.01,-33.88"/>
</g>
<!-- 54882 -->
<g id="node12" class="node">
<title>54882</title>
<ellipse fill="white" stroke="black" cx="502.45" cy="-210.24" rx="27.22" ry="27.22"/>
<text xml:space="preserve" text-anchor="middle" x="502.45" y="-206.94" font-family="Times New Roman,serif" font-size="9.00">54882</text>
</g>
<!-- 54882&#45;&gt;106583 -->
<g id="edge12" class="edge">
<title>54882&#45;&gt;106583</title>
<path fill="none" stroke="red" stroke-width="0.11" stroke-dasharray="1,5" d="M489.84,-186.12C484.27,-175.91 477.6,-163.69 471.45,-152.42"/>
<polygon fill="red" stroke="red" stroke-width="0.11" points="474.6,-150.89 466.74,-143.79 468.46,-154.24 474.6,-150.89"/>
</g>
<!-- 120905&#45;&gt;Right -->
<g id="edge19" class="edge">
<title>120905&#45;&gt;Right</title>
<path fill="none" stroke="green" stroke-width="0.92" d="M223.14,-97.25C228.4,-93.43 234.03,-89.56 239.45,-86.2 266.9,-69.22 299.71,-52.66 323.59,-41.25"/>
<polygon fill="green" stroke="green" stroke-width="0.92" points="325.08,-44.41 332.63,-36.97 322.09,-38.08 325.08,-44.41"/>
</g>
<!-- 106583&#45;&gt;Right -->
<g id="edge3" class="edge">
<title>106583&#45;&gt;Right</title>
<path fill="none" stroke="red" stroke-width="0.43" stroke-dasharray="1,5" d="M430.67,-95.3C416.25,-81.86 397.29,-64.18 382.14,-50.05"/>
<polygon fill="red" stroke="red" stroke-width="0.43" points="384.79,-47.74 375.09,-43.48 380.02,-52.86 384.79,-47.74"/>
</g>
<!-- 85431&#45;&gt;Main -->
<g id="edge15" class="edge">
<title>85431&#45;&gt;Main</title>
<path fill="none" stroke="green" stroke-width="0.13" d="M143.61,-97.93C159.72,-83.79 182.41,-63.88 199.81,-48.6"/>
<polygon fill="green" stroke="green" stroke-width="0.13" points="202.04,-51.3 207.25,-42.08 197.43,-46.04 202.04,-51.3"/>
</g>
</g>
</svg>
