<?xml version="1.0" encoding="UTF-8" standalone="no"?>
<!DOCTYPE svg PUBLIC "-//W3C//DTD SVG 1.1//EN"
 "http://www.w3.org/Graphics/SVG/1.1/DTD/svg11.dtd">
<!-- Generated by graphviz version 14.0.2 (20251019.1705)
 -->
<!-- Pages: 1 -->
<svg width="1003pt" height="479pt"
 viewBox="0.00 0.00 1003.00 479.00" xmlns="http://www.w3.org/2000/svg" xmlns:xlink="http://www.w3.org/1999/xlink">
<g id="graph0" class="graph" transform="scale(1 1) rotate(0) translate(4 474.74)">
<polygon fill="white" stroke="none" points="-4,4 -4,-474.74 999.42,-474.74 999.42,4 -4,4"/>
<!-- x -->
<g id="node1" class="node">
<title>x</title>
<polygon fill="lightgray" stroke="black" points="215.55,-470.74 195.05,-470.74 195.05,-452.24 215.55,-452.24 215.55,-470.74"/>
<text xml:space="preserve" text-anchor="middle" x="205.3" y="-458.19" font-family="Times New Roman,serif" font-size="9.00">x</text>
</g>
<!-- No&#45;Op -->
<g id="node8" class="node">
<title>No&#45;Op</title>
<ellipse fill="lightblue" stroke="black" cx="502.3" cy="-296.44" rx="29.34" ry="29.34"/>
<text xml:space="preserve" text-anchor="middle" x="502.3" y="-293.14" font-family="Times New Roman,serif" font-size="9.00">No&#45;Op</text>
</g>
<!-- x&#45;&gt;No&#45;Op -->
<g id="edge1" class="edge">
<title>x&#45;&gt;No&#45;Op</title>
<path fill="none" stroke="green" stroke-width="0.35" stroke-dasharray="1,5" d="M215.85,-459.75C256.91,-456.69 405.47,-443.87 442.3,-416.24 456.51,-405.57 475.31,-364.82 488.05,-334"/>
<polygon fill="green" stroke="green" stroke-width="0.35" points="491.23,-335.46 491.76,-324.88 484.75,-332.82 491.23,-335.46"/>
</g>
<!-- Left -->
<g id="node9" class="node">
<title>Left</title>
<ellipse fill="lightblue" stroke="black" cx="282.3" cy="-25.1" rx="21.39" ry="21.39"/>
<text xml:space="preserve" text-anchor="middle" x="282.3" y="-21.8" font-family="Times New Roman,serif" font-size="9.00">Left</text>
</g>
<!-- x&#45;&gt;Left -->
<g id="edge2" class="edge">
<title>x&#45;&gt;Left</title>
<path fill="none" stroke="red" stroke-width="0.3" stroke-dasharray="1,5" d="M194.74,-459.11C171.62,-455.63 115.64,-444.66 79.3,-416.24 29.55,-377.32 1.3,-360.6 1.3,-297.44 1.3,-297.44 1.3,-297.44 1.3,-202.88 1.3,-149.55 -8.45,-123.87 29.3,-86.2 60.35,-55.22 190.05,-36.64 250.73,-29.49"/>
<polygon fill="red" stroke="red" stroke-width="0.3" points="250.89,-33 260.43,-28.38 250.09,-26.04 250.89,-33"/>
</g>
<!-- Main -->
<g id="node10" class="node">
<title>Main</title>
<ellipse fill="lightblue" stroke="black" cx="392.3" cy="-296.44" rx="24.57" ry="24.57"/>
<text xml:space="preserve" text-anchor="middle" x="392.3" y="-293.14" font-family="Times New Roman,serif" font-size="9.00">Main</text>
</g>
<!-- x&#45;&gt;Main -->
<g id="edge3" class="edge">
<title>x&#45;&gt;Main</title>
<path fill="none" stroke="red" stroke-width="0.66" stroke-dasharray="1,5" d="M215.95,-460.12C241.59,-458.67 307.44,-451.51 345.3,-416.24 369.15,-394.01 381.11,-358.14 386.96,-331.62"/>
<polygon fill="red" stroke="red" stroke-width="0.66" points="390.38,-332.37 388.92,-321.87 383.52,-330.99 390.38,-332.37"/>
</g>
<!-- 38669 -->
<g id="node14" class="node">
<title>38669</title>
<ellipse fill="white" stroke="black" cx="170.3" cy="-296.44" rx="27.22" ry="27.22"/>
<text xml:space="preserve" text-anchor="middle" x="170.3" y="-293.14" font-family="Times New Roman,serif" font-size="9.00">38669</text>
</g>
<!-- x&#45;&gt;38669 -->
<g id="edge40" class="edge">
<title>x&#45;&gt;38669</title>
<path fill="none" stroke="green" stroke-width="0.21" stroke-dasharray="1,5" d="M203.51,-452.18C198.88,-430.61 186.27,-371.86 177.99,-333.28"/>
<polygon fill="green" stroke="green" stroke-width="0.21" points="181.47,-332.81 175.95,-323.76 174.62,-334.28 181.47,-332.81"/>
</g>
<!-- 44878 -->
<g id="node15" class="node">
<title>44878</title>
<ellipse fill="white" stroke="black" cx="115.3" cy="-389.01" rx="27.22" ry="27.22"/>
<text xml:space="preserve" text-anchor="middle" x="115.3" y="-385.71" font-family="Times New Roman,serif" font-size="9.00">44878</text>
</g>
<!-- x&#45;&gt;44878 -->
<g id="edge37" class="edge">
<title>x&#45;&gt;44878</title>
<path fill="none" stroke="green" stroke-width="0.47" stroke-dasharray="1,5" d="M194.62,-452.13C182.37,-442.54 161.78,-426.41 144.65,-413"/>
<polygon fill="green" stroke="green" stroke-width="0.47" points="147.16,-410.52 137.13,-407.11 142.85,-416.03 147.16,-410.52"/>
</g>
<!-- 1885 -->
<g id="node18" class="node">
<title>1885</title>
<ellipse fill="white" stroke="black" cx="353.3" cy="-203.88" rx="24.04" ry="24.04"/>
<text xml:space="preserve" text-anchor="middle" x="353.3" y="-200.58" font-family="Times New Roman,serif" font-size="9.00">1885</text>
</g>
<!-- x&#45;&gt;1885 -->
<g id="edge33" class="edge">
<title>x&#45;&gt;1885</title>
<path fill="none" stroke="red" stroke-width="0.57" stroke-dasharray="1,5" d="M210.22,-451.98C229.8,-418.16 302.71,-292.24 336.24,-234.34"/>
<polygon fill="red" stroke="red" stroke-width="0.57" points="339.23,-236.16 341.21,-225.75 333.17,-232.65 339.23,-236.16"/>
</g>
<!-- y -->
<g id="node2" class="node">
<title>y</title>
<polygon fill="lightgray" stroke="black" points="433.55,-398.26 413.05,-398.26 413.05,-379.76 433.55,-379.76 433.55,-398.26"/>
<text xml:space="preserve" text-anchor="middle" x="423.3" y="-385.71" font-family="Times New Roman,serif" font-size="9.00">y</text>
</g>
<!-- y&#45;&gt;Left -->
<g id="edge23" class="edge">
<title>y&#45;&gt;Left</title>
<path fill="none" stroke="red" stroke-width="0.35" stroke-dasharray="1,5" d="M424.86,-379.39C428.2,-359.38 435.02,-308.39 426.3,-267.1 407.35,-177.43 338.54,-89.46 303.35,-49.08"/>
<polygon fill="red" stroke="red" stroke-width="0.35" points="306.18,-46.99 296.93,-41.82 300.93,-51.63 306.18,-46.99"/>
</g>
<!-- y&#45;&gt;Main -->
<g id="edge4" class="edge">
<title>y&#45;&gt;Main</title>
<path fill="none" stroke="green" stroke-width="0.15" stroke-dasharray="1,5" d="M420.32,-379.33C416.41,-367.9 409.32,-347.17 403.25,-329.43"/>
<polygon fill="green" stroke="green" stroke-width="0.15" points="406.63,-328.51 400.08,-320.18 400.01,-330.78 406.63,-328.51"/>
</g>
<!-- theta -->
<g id="node3" class="node">
<title>theta</title>
<polygon fill="lightgray" stroke="black" points="336.55,-398.26 304.05,-398.26 304.05,-379.76 336.55,-379.76 336.55,-398.26"/>
<text xml:space="preserve" text-anchor="middle" x="320.3" y="-385.71" font-family="Times New Roman,serif" font-size="9.00">theta</text>
</g>
<!-- theta&#45;&gt;No&#45;Op -->
<g id="edge5" class="edge">
<title>theta&#45;&gt;No&#45;Op</title>
<path fill="none" stroke="green" stroke-width="0.28" stroke-dasharray="1,5" d="M336.77,-379.82C366.09,-365.22 427.95,-334.44 467.18,-314.92"/>
<polygon fill="green" stroke="green" stroke-width="0.28" points="468.38,-318.23 475.77,-310.64 465.26,-311.97 468.38,-318.23"/>
</g>
<!-- theta&#45;&gt;Left -->
<g id="edge6" class="edge">
<title>theta&#45;&gt;Left</title>
<path fill="none" stroke="red" stroke-width="0.57" stroke-dasharray="1,5" d="M313.94,-379.29C305.94,-367.73 292.61,-346.39 287.3,-325.79 262.7,-230.32 271.77,-112.03 278.15,-56.98"/>
<polygon fill="red" stroke="red" stroke-width="0.57" points="281.58,-57.73 279.31,-47.38 274.63,-56.89 281.58,-57.73"/>
</g>
<!-- theta&#45;&gt;Main -->
<g id="edge7" class="edge">
<title>theta&#45;&gt;Main</title>
<path fill="none" stroke="red" stroke-width="0.18" stroke-dasharray="1,5" d="M327.2,-379.33C337.2,-366.76 356.13,-342.94 371.01,-324.22"/>
<polygon fill="red" stroke="red" stroke-width="0.18" points="373.66,-326.52 377.14,-316.51 368.18,-322.16 373.66,-326.52"/>
</g>
<!-- Right -->
<g id="node11" class="node">
<title>Right</title>
<ellipse fill="lightblue" stroke="black" cx="618.3" cy="-25.1" rx="25.1" ry="25.1"/>
<text xml:space="preserve" text-anchor="middle" x="618.3" y="-21.8" font-family="Times New Roman,serif" font-size="9.00">Right</text>
</g>
<!-- theta&#45;&gt;Right -->
<g id="edge8" class="edge">
<title>theta&#45;&gt;Right</title>
<path fill="none" stroke="green" stroke-width="0.12" stroke-dasharray="1,5" d="M317.39,-379.51C307.58,-349.18 278.58,-244.47 320.3,-176.65 378.82,-81.52 518.08,-44.3 583.37,-31.72"/>
<polygon fill="green" stroke="green" stroke-width="0.12" points="583.82,-35.19 593.02,-29.93 582.55,-28.31 583.82,-35.19"/>
</g>
<!-- theta&#45;&gt;38669 -->
<g id="edge31" class="edge">
<title>theta&#45;&gt;38669</title>
<path fill="none" stroke="green" stroke-width="0.78" stroke-dasharray="1,5" d="M305.91,-379.33C282.32,-365.08 234.83,-336.41 202.79,-317.06"/>
<polygon fill="green" stroke="green" stroke-width="0.78" points="204.77,-314.17 194.41,-312 201.16,-320.17 204.77,-314.17"/>
</g>
<!-- theta&#45;&gt;1885 -->
<g id="edge28" class="edge">
<title>theta&#45;&gt;1885</title>
<path fill="none" stroke="red" stroke-width="0.26" stroke-dasharray="1,5" d="M321.8,-379.67C326.25,-354.97 339.53,-281.28 347.35,-237.87"/>
<polygon fill="red" stroke="red" stroke-width="0.26" points="350.77,-238.64 349.1,-228.18 343.88,-237.4 350.77,-238.64"/>
</g>
<!-- vx -->
<g id="node4" class="node">
<title>vx</title>
<polygon fill="lightgray" stroke="black" points="514.8,-398.26 489.8,-398.26 489.8,-379.76 514.8,-379.76 514.8,-398.26"/>
<text xml:space="preserve" text-anchor="middle" x="502.3" y="-385.71" font-family="Times New Roman,serif" font-size="9.00">vx</text>
</g>
<!-- vx&#45;&gt;No&#45;Op -->
<g id="edge9" class="edge">
<title>vx&#45;&gt;No&#45;Op</title>
<path fill="none" stroke="green" stroke-width="0.48" stroke-dasharray="1,5" d="M502.3,-379.33C502.3,-369.47 502.3,-352.71 502.3,-336.9"/>
<polygon fill="green" stroke="green" stroke-width="0.48" points="505.8,-336.93 502.3,-326.93 498.8,-336.93 505.8,-336.93"/>
</g>
<!-- vx&#45;&gt;Main -->
<g id="edge11" class="edge">
<title>vx&#45;&gt;Main</title>
<path fill="none" stroke="green" stroke-width="0.59" stroke-dasharray="1,5" d="M491.75,-379.33C475.18,-365.68 442.53,-338.8 419.16,-319.56"/>
<polygon fill="green" stroke="green" stroke-width="0.59" points="421.65,-317.07 411.7,-313.42 417.2,-322.48 421.65,-317.07"/>
</g>
<!-- vx&#45;&gt;Right -->
<g id="edge12" class="edge">
<title>vx&#45;&gt;Right</title>
<path fill="none" stroke="red" stroke-width="0.18" stroke-dasharray="1,5" d="M509.1,-379.29C517.76,-367.74 532.52,-346.39 540.3,-325.79 578.47,-224.65 544.56,-187.51 582.3,-86.2 586.36,-75.3 592.42,-64.14 598.41,-54.46"/>
<polygon fill="red" stroke="red" stroke-width="0.18" points="601.22,-56.55 603.68,-46.25 595.33,-52.77 601.22,-56.55"/>
</g>
<!-- vy -->
<g id="node5" class="node">
<title>vy</title>
<polygon fill="lightgray" stroke="black" points="628.8,-398.26 603.8,-398.26 603.8,-379.76 628.8,-379.76 628.8,-398.26"/>
<text xml:space="preserve" text-anchor="middle" x="616.3" y="-385.71" font-family="Times New Roman,serif" font-size="9.00">vy</text>
</g>
<!-- vy&#45;&gt;No&#45;Op -->
<g id="edge13" class="edge">
<title>vy&#45;&gt;No&#45;Op</title>
<path fill="none" stroke="green" stroke-width="0.34" stroke-dasharray="1,5" d="M605.37,-379.33C588.92,-366.26 557.17,-341.04 533.24,-322.03"/>
<polygon fill="green" stroke="green" stroke-width="0.34" points="535.54,-319.39 525.54,-315.91 531.19,-324.87 535.54,-319.39"/>
</g>
<!-- vy&#45;&gt;Right -->
<g id="edge16" class="edge">
<title>vy&#45;&gt;Right</title>
<path fill="none" stroke="red" stroke-width="0.11" stroke-dasharray="1,5" d="M619.78,-379.44C634.02,-343.18 685.55,-199.2 654.3,-86.2 651.17,-74.9 645.29,-63.58 639.17,-53.86"/>
<polygon fill="red" stroke="red" stroke-width="0.11" points="642.1,-51.95 633.65,-45.56 636.28,-55.83 642.1,-51.95"/>
</g>
<!-- 56145 -->
<g id="node16" class="node">
<title>56145</title>
<ellipse fill="white" stroke="black" cx="618.3" cy="-203.88" rx="27.22" ry="27.22"/>
<text xml:space="preserve" text-anchor="middle" x="618.3" y="-200.58" font-family="Times New Roman,serif" font-size="9.00">56145</text>
</g>
<!-- vy&#45;&gt;56145 -->
<g id="edge34" class="edge">
<title>vy&#45;&gt;56145</title>
<path fill="none" stroke="green" stroke-width="0.51" d="M616.39,-379.67C616.65,-355.74 617.41,-285.78 617.89,-241.97"/>
<polygon fill="green" stroke="green" stroke-width="0.51" points="621.39,-242.25 618,-232.21 614.39,-242.18 621.39,-242.25"/>
</g>
<!-- vy&#45;&gt;1885 -->
<g id="edge30" class="edge">
<title>vy&#45;&gt;1885</title>
<path fill="none" stroke="red" stroke-width="0.52" stroke-dasharray="1,5" d="M613.21,-379.26C604.96,-357.14 580.28,-298.48 540.3,-267.1 494.91,-231.47 428.17,-215.78 387.9,-209.22"/>
<polygon fill="red" stroke="red" stroke-width="0.52" points="388.48,-205.77 378.07,-207.72 387.42,-212.69 388.48,-205.77"/>
</g>
<!-- v_theta -->
<g id="node6" class="node">
<title>v_theta</title>
<polygon fill="lightgray" stroke="black" points="859.05,-398.26 817.55,-398.26 817.55,-379.76 859.05,-379.76 859.05,-398.26"/>
<text xml:space="preserve" text-anchor="middle" x="838.3" y="-385.71" font-family="Times New Roman,serif" font-size="9.00">v_theta</text>
</g>
<!-- v_theta&#45;&gt;No&#45;Op -->
<g id="edge17" class="edge">
<title>v_theta&#45;&gt;No&#45;Op</title>
<path fill="none" stroke="green" stroke-width="0.21" stroke-dasharray="1,5" d="M817.28,-382.35C761.96,-367.44 611.69,-326.93 540.58,-307.76"/>
<polygon fill="green" stroke="green" stroke-width="0.21" points="541.56,-304.4 530.99,-305.18 539.73,-311.16 541.56,-304.4"/>
</g>
<!-- v_theta&#45;&gt;Right -->
<g id="edge18" class="edge">
<title>v_theta&#45;&gt;Right</title>
<path fill="none" stroke="red" stroke-width="0.77" stroke-dasharray="1,5" d="M849.81,-379.42C863.21,-368.63 884.62,-348.71 893.3,-325.79 902.53,-301.39 904.07,-290.86 893.3,-267.1 842.63,-155.33 711.67,-74.94 650.57,-42.27"/>
<polygon fill="red" stroke="red" stroke-width="0.77" points="652.22,-39.18 641.74,-37.63 648.96,-45.38 652.22,-39.18"/>
</g>
<!-- 54882 -->
<g id="node12" class="node">
<title>54882</title>
<ellipse fill="white" stroke="black" cx="618.3" cy="-113.43" rx="27.22" ry="27.22"/>
<text xml:space="preserve" text-anchor="middle" x="618.3" y="-110.13" font-family="Times New Roman,serif" font-size="9.00">54882</text>
</g>
<!-- v_theta&#45;&gt;54882 -->
<g id="edge19" class="edge">
<title>v_theta&#45;&gt;54882</title>
<path fill="none" stroke="red" stroke-width="0.41" stroke-dasharray="1,5" d="M849.81,-379.42C863.21,-368.63 884.62,-348.71 893.3,-325.79 902.53,-301.39 906.53,-289.58 893.3,-267.1 841.19,-178.57 717.17,-137.71 655.06,-122.27"/>
<polygon fill="red" stroke="red" stroke-width="0.41" points="656.08,-118.91 645.54,-119.98 654.44,-125.72 656.08,-118.91"/>
</g>
<!-- 67337 -->
<g id="node13" class="node">
<title>67337</title>
<ellipse fill="white" stroke="black" cx="838.3" cy="-296.44" rx="27.22" ry="27.22"/>
<text xml:space="preserve" text-anchor="middle" x="838.3" y="-293.14" font-family="Times New Roman,serif" font-size="9.00">67337</text>
</g>
<!-- v_theta&#45;&gt;67337 -->
<g id="edge14" class="edge">
<title>v_theta&#45;&gt;67337</title>
<path fill="none" stroke="green" stroke-width="0.49" d="M838.3,-379.33C838.3,-368.94 838.3,-350.88 838.3,-334.36"/>
<polygon fill="green" stroke="green" stroke-width="0.49" points="841.8,-334.56 838.3,-324.56 834.8,-334.56 841.8,-334.56"/>
</g>
<!-- v_theta&#45;&gt;56145 -->
<g id="edge35" class="edge">
<title>v_theta&#45;&gt;56145</title>
<path fill="none" stroke="red" stroke-width="0.38" stroke-dasharray="1,5" d="M845.57,-379.42C862.65,-358.15 901.91,-302.23 874.3,-267.1 847.52,-233.04 720.17,-215.31 655.77,-208.4"/>
<polygon fill="red" stroke="red" stroke-width="0.38" points="656.5,-204.96 646.19,-207.4 655.78,-211.92 656.5,-204.96"/>
</g>
<!-- 69843 -->
<g id="node17" class="node">
<title>69843</title>
<ellipse fill="white" stroke="black" cx="728.3" cy="-296.44" rx="27.22" ry="27.22"/>
<text xml:space="preserve" text-anchor="middle" x="728.3" y="-293.14" font-family="Times New Roman,serif" font-size="9.00">69843</text>
</g>
<!-- v_theta&#45;&gt;69843 -->
<g id="edge26" class="edge">
<title>v_theta&#45;&gt;69843</title>
<path fill="none" stroke="green" stroke-width="0.9" d="M827.75,-379.33C811.8,-366.2 780.95,-340.8 757.82,-321.75"/>
<polygon fill="green" stroke="green" stroke-width="0.9" points="760.07,-319.07 750.12,-315.41 755.62,-324.47 760.07,-319.07"/>
</g>
<!-- v_theta&#45;&gt;1885 -->
<g id="edge29" class="edge">
<title>v_theta&#45;&gt;1885</title>
<path fill="none" stroke="green" stroke-width="0.71" d="M833.42,-379.61C817.81,-352.79 769.78,-270.74 764.3,-267.1 733.05,-246.36 481.66,-218.29 388.16,-208.45"/>
<polygon fill="green" stroke="green" stroke-width="0.71" points="388.68,-204.99 378.37,-207.43 387.96,-211.95 388.68,-204.99"/>
</g>
<!-- speed -->
<g id="node7" class="node">
<title>speed</title>
<polygon fill="lightgray" stroke="black" points="995.42,-122.68 959.17,-122.68 959.17,-104.18 995.42,-104.18 995.42,-122.68"/>
<text xml:space="preserve" text-anchor="middle" x="977.3" y="-110.13" font-family="Times New Roman,serif" font-size="9.00">speed</text>
</g>
<!-- speed&#45;&gt;Right -->
<g id="edge22" class="edge">
<title>speed&#45;&gt;Right</title>
<path fill="none" stroke="green" stroke-width="0.96" stroke-dasharray="1,5" d="M969.16,-103.76C963.14,-97.88 954.42,-90.43 945.3,-86.2 847.15,-40.7 717.44,-29.61 654.99,-26.93"/>
<polygon fill="green" stroke="green" stroke-width="0.96" points="655.36,-23.45 645.24,-26.57 655.1,-30.44 655.36,-23.45"/>
</g>
<!-- 54882&#45;&gt;Left -->
<g id="edge20" class="edge">
<title>54882&#45;&gt;Left</title>
<path fill="none" stroke="green" stroke-width="0.41" stroke-dasharray="1,5" d="M591.93,-105.65C530.68,-89.92 378.98,-50.94 313.36,-34.08"/>
<polygon fill="green" stroke="green" stroke-width="0.41" points="314.39,-30.73 303.83,-31.64 312.65,-37.51 314.39,-30.73"/>
</g>
<!-- 54882&#45;&gt;Right -->
<g id="edge32" class="edge">
<title>54882&#45;&gt;Right</title>
<path fill="none" stroke="green" stroke-width="0.4" d="M618.3,-86.06C618.3,-78.2 618.3,-69.46 618.3,-61.13"/>
<polygon fill="green" stroke="green" stroke-width="0.4" points="621.8,-61.15 618.3,-51.15 614.8,-61.15 621.8,-61.15"/>
</g>
<!-- 67337&#45;&gt;56145 -->
<g id="edge15" class="edge">
<title>67337&#45;&gt;56145</title>
<path fill="none" stroke="red" stroke-width="0.18" d="M816.85,-279C810.74,-274.77 803.93,-270.47 797.3,-267.1 750.1,-243.14 691.53,-224.72 654.53,-214.34"/>
<polygon fill="red" stroke="red" stroke-width="0.18" points="655.52,-210.98 644.95,-211.7 653.66,-217.73 655.52,-210.98"/>
</g>
<!-- 38669&#45;&gt;56145 -->
<g id="edge10" class="edge">
<title>38669&#45;&gt;56145</title>
<path fill="none" stroke="green" stroke-width="0.53" d="M196.98,-290.05C273.3,-274.62 492.67,-230.27 580.89,-212.44"/>
<polygon fill="green" stroke="green" stroke-width="0.53" points="581.57,-215.87 590.68,-210.46 580.18,-209.01 581.57,-215.87"/>
</g>
<!-- 44878&#45;&gt;Left -->
<g id="edge38" class="edge">
<title>44878&#45;&gt;Left</title>
<path fill="none" stroke="red" stroke-width="0.29" stroke-dasharray="1,5" d="M94.98,-370.65C83.26,-359.26 69.64,-343.26 63.3,-325.79 26.98,-225.69 -1.27,-170.88 63.3,-86.2 85.99,-56.44 195.46,-37.77 250.53,-30.11"/>
<polygon fill="red" stroke="red" stroke-width="0.29" points="250.9,-33.59 260.34,-28.78 249.96,-26.65 250.9,-33.59"/>
</g>
<!-- 44878&#45;&gt;Right -->
<g id="edge25" class="edge">
<title>44878&#45;&gt;Right</title>
<path fill="none" stroke="green" stroke-width="0.54" stroke-dasharray="1,5" d="M106.89,-362.94C99.88,-337.42 93.22,-297.41 108.3,-267.1 167.61,-147.82 226.38,-142.11 347.3,-86.2 426.52,-49.58 529.29,-34.69 582.64,-29.12"/>
<polygon fill="green" stroke="green" stroke-width="0.54" points="582.82,-32.62 592.43,-28.15 582.13,-25.65 582.82,-32.62"/>
</g>
<!-- 44878&#45;&gt;38669 -->
<g id="edge24" class="edge">
<title>44878&#45;&gt;38669</title>
<path fill="none" stroke="red" stroke-width="0.34" stroke-dasharray="1,5" d="M129.18,-365.16C135.82,-354.22 143.88,-340.94 151.1,-329.05"/>
<polygon fill="red" stroke="red" stroke-width="0.34" points="153.96,-331.09 156.16,-320.73 147.98,-327.46 153.96,-331.09"/>
</g>
<!-- 44878&#45;&gt;1885 -->
<g id="edge21" class="edge">
<title>44878&#45;&gt;1885</title>
<path fill="none" stroke="green" stroke-width="0.15" d="M111.9,-362C109.91,-334.96 111.33,-293.03 134.3,-267.1 181.3,-214.04 269.93,-204.78 318.79,-204"/>
<polygon fill="green" stroke="green" stroke-width="0.15" points="318.66,-207.5 328.65,-203.95 318.63,-200.5 318.66,-207.5"/>
</g>
<!-- 56145&#45;&gt;54882 -->
<g id="edge39" class="edge">
<title>56145&#45;&gt;54882</title>
<path fill="none" stroke="red" stroke-width="0.26" stroke-dasharray="1,5" d="M618.3,-176.34C618.3,-168.47 618.3,-159.7 618.3,-151.3"/>
<polygon fill="red" stroke="red" stroke-width="0.26" points="621.8,-151.35 618.3,-141.35 614.8,-151.35 621.8,-151.35"/>
</g>
<!-- 69843&#45;&gt;1885 -->
<g id="edge27" class="edge">
<title>69843&#45;&gt;1885</title>
<path fill="none" stroke="green" stroke-width="0.21" d="M701.81,-289.02C678.1,-283.27 642.38,-274.61 611.3,-267.1 530.6,-247.59 435.69,-224.72 386.55,-212.88"/>
<polygon fill="green" stroke="green" stroke-width="0.21" points="387.63,-209.54 377.09,-210.6 385.99,-216.35 387.63,-209.54"/>
</g>
<!-- 1885&#45;&gt;Left -->
<g id="edge36" class="edge">
<title>1885&#45;&gt;Left</title>
<path fill="none" stroke="green" stroke-width="0.94" d="M344.59,-181.2C331.94,-149.7 308.43,-91.18 294.19,-55.72"/>
<polygon fill="green" stroke="green" stroke-width="0.94" points="297.6,-54.82 290.63,-46.84 291.11,-57.43 297.6,-54.82"/>
</g>
</g>
</svg>
