<?xml version="1.0" encoding="UTF-8" standalone="no"?>
<!DOCTYPE svg PUBLIC "-//W3C//DTD SVG 1.1//EN"
 "http://www.w3.org/Graphics/SVG/1.1/DTD/svg11.dtd">
<!-- Generated by graphviz version 14.0.2 (20251019.1705)
 -->
<!-- Pages: 1 -->
<svg width="1416pt" height="519pt"
 viewBox="0.00 0.00 1416.00 519.00" xmlns="http://www.w3.org/2000/svg" xmlns:xlink="http://www.w3.org/1999/xlink">
<g id="graph0" class="graph" transform="scale(1 1) rotate(0) translate(4 514.93)">
<polygon fill="white" stroke="none" points="-4,4 -4,-514.93 1412.1,-514.93 1412.1,4 -4,4"/>
<!-- x -->
<g id="node1" class="node">
<title>x</title>
<polygon fill="lightgray" stroke="black" points="424.64,-492.95 404.14,-492.95 404.14,-474.45 424.64,-474.45 424.64,-492.95"/>
<text xml:space="preserve" text-anchor="middle" x="414.39" y="-480.4" font-family="Times New Roman,serif" font-size="9.00">x</text>
</g>
<!-- Left -->
<g id="node9" class="node">
<title>Left</title>
<ellipse fill="lightblue" stroke="black" cx="214.39" cy="-393.26" rx="21.39" ry="21.39"/>
<text xml:space="preserve" text-anchor="middle" x="214.39" y="-389.96" font-family="Times New Roman,serif" font-size="9.00">Left</text>
</g>
<!-- x&#45;&gt;Left -->
<g id="edge1" class="edge">
<title>x&#45;&gt;Left</title>
<path fill="none" stroke="red" stroke-width="0.23" stroke-dasharray="1,5" d="M403.92,-478.07C374.19,-464.93 288.51,-427.03 243.23,-407.01"/>
<polygon fill="red" stroke="red" stroke-width="0.23" points="244.83,-403.89 234.26,-403.04 241.99,-410.29 244.83,-403.89"/>
</g>
<!-- Main -->
<g id="node10" class="node">
<title>Main</title>
<ellipse fill="lightblue" stroke="black" cx="881.39" cy="-212.36" rx="24.57" ry="24.57"/>
<text xml:space="preserve" text-anchor="middle" x="881.39" y="-209.06" font-family="Times New Roman,serif" font-size="9.00">Main</text>
</g>
<!-- x&#45;&gt;Main -->
<g id="edge2" class="edge">
<title>x&#45;&gt;Main</title>
<path fill="none" stroke="green" stroke-width="0.22" stroke-dasharray="1,5" d="M418.2,-474.06C421.34,-468.03 426.43,-460.38 433.39,-456.48 522.24,-406.64 803.63,-473.86 890.39,-420.48 949.06,-384.39 972.2,-339.03 945.39,-275.58 938.1,-258.32 923.42,-243.49 909.96,-232.64"/>
<polygon fill="green" stroke="green" stroke-width="0.22" points="912.14,-229.9 902.07,-226.61 907.89,-235.46 912.14,-229.9"/>
</g>
<!-- 34 -->
<g id="node19" class="node">
<title>34</title>
<ellipse fill="white" stroke="black" cx="427.39" cy="-393.26" rx="17.68" ry="17.68"/>
<text xml:space="preserve" text-anchor="middle" x="427.39" y="-389.96" font-family="Times New Roman,serif" font-size="9.00">34</text>
</g>
<!-- x&#45;&gt;34 -->
<g id="edge44" class="edge">
<title>x&#45;&gt;34</title>
<path fill="none" stroke="red" stroke-width="0.45" stroke-dasharray="1,5" d="M415.64,-474.22C417.41,-462.19 420.72,-439.62 423.38,-421.52"/>
<polygon fill="red" stroke="red" stroke-width="0.45" points="426.85,-422.03 424.84,-411.63 419.92,-421.01 426.85,-422.03"/>
</g>
<!-- y -->
<g id="node2" class="node">
<title>y</title>
<polygon fill="lightgray" stroke="black" points="331.64,-492.95 311.14,-492.95 311.14,-474.45 331.64,-474.45 331.64,-492.95"/>
<text xml:space="preserve" text-anchor="middle" x="321.39" y="-480.4" font-family="Times New Roman,serif" font-size="9.00">y</text>
</g>
<!-- Right -->
<g id="node11" class="node">
<title>Right</title>
<ellipse fill="lightblue" stroke="black" cx="300.39" cy="-121.91" rx="25.1" ry="25.1"/>
<text xml:space="preserve" text-anchor="middle" x="300.39" y="-118.61" font-family="Times New Roman,serif" font-size="9.00">Right</text>
</g>
<!-- y&#45;&gt;Right -->
<g id="edge3" class="edge">
<title>y&#45;&gt;Right</title>
<path fill="none" stroke="green" stroke-width="0.65" stroke-dasharray="1,5" d="M319.12,-474.43C309.81,-439.41 275.53,-299.96 287.39,-185.14 288.34,-176.01 290.04,-166.24 291.91,-157.21"/>
<polygon fill="green" stroke="green" stroke-width="0.65" points="295.29,-158.14 294.02,-147.63 288.45,-156.64 295.29,-158.14"/>
</g>
<!-- y&#45;&gt;34 -->
<g id="edge45" class="edge">
<title>y&#45;&gt;34</title>
<path fill="none" stroke="red" stroke-width="0.52" stroke-dasharray="1,5" d="M331.56,-474.22C348.65,-459.96 383.49,-430.88 406.12,-412"/>
<polygon fill="red" stroke="red" stroke-width="0.52" points="408.09,-414.92 413.53,-405.82 403.61,-409.54 408.09,-414.92"/>
</g>
<!-- theta -->
<g id="node3" class="node">
<title>theta</title>
<polygon fill="lightgray" stroke="black" points="684.64,-492.95 652.14,-492.95 652.14,-474.45 684.64,-474.45 684.64,-492.95"/>
<text xml:space="preserve" text-anchor="middle" x="668.39" y="-480.4" font-family="Times New Roman,serif" font-size="9.00">theta</text>
</g>
<!-- No&#45;Op -->
<g id="node8" class="node">
<title>No&#45;Op</title>
<ellipse fill="lightblue" stroke="black" cx="279.39" cy="-29.34" rx="29.34" ry="29.34"/>
<text xml:space="preserve" text-anchor="middle" x="279.39" y="-26.04" font-family="Times New Roman,serif" font-size="9.00">No&#45;Op</text>
</g>
<!-- theta&#45;&gt;No&#45;Op -->
<g id="edge4" class="edge">
<title>theta&#45;&gt;No&#45;Op</title>
<path fill="none" stroke="green" stroke-width="0.8" stroke-dasharray="1,5" d="M668.39,-474.14C668.39,-448.38 668.39,-369.34 668.39,-303.81 668.39,-303.81 668.39,-303.81 668.39,-211.36 668.39,-58.92 419.8,-34.53 320.07,-30.87"/>
<polygon fill="green" stroke="green" stroke-width="0.8" points="320.26,-27.38 310.16,-30.57 320.05,-34.37 320.26,-27.38"/>
</g>
<!-- theta&#45;&gt;Left -->
<g id="edge5" class="edge">
<title>theta&#45;&gt;Left</title>
<path fill="none" stroke="green" stroke-width="0.64" stroke-dasharray="1,5" d="M651.69,-479.45C584.73,-466.4 334.96,-417.74 246.06,-400.42"/>
<polygon fill="green" stroke="green" stroke-width="0.64" points="246.99,-397.04 236.51,-398.56 245.65,-403.91 246.99,-397.04"/>
</g>
<!-- theta&#45;&gt;Main -->
<g id="edge6" class="edge">
<title>theta&#45;&gt;Main</title>
<path fill="none" stroke="red" stroke-width="0.65" stroke-dasharray="1,5" d="M685.13,-474.21C704.72,-463.66 737.3,-444.11 759.39,-420.48 809.68,-366.68 848.6,-288.65 867.94,-245.35"/>
<polygon fill="red" stroke="red" stroke-width="0.65" points="871.1,-246.85 871.92,-236.28 864.69,-244.03 871.1,-246.85"/>
</g>
<!-- theta&#45;&gt;Right -->
<g id="edge8" class="edge">
<title>theta&#45;&gt;Right</title>
<path fill="none" stroke="green" stroke-width="0.16" stroke-dasharray="1,5" d="M666.03,-474.03C657.55,-444.01 626.27,-342.71 573.39,-275.58 510.15,-195.3 392.35,-150.55 334.39,-132.47"/>
<polygon fill="green" stroke="green" stroke-width="0.16" points="335.43,-129.13 324.85,-129.57 333.4,-135.83 335.43,-129.13"/>
</g>
<!-- 55937 -->
<g id="node14" class="node">
<title>55937</title>
<ellipse fill="white" stroke="black" cx="1057.39" cy="-302.81" rx="27.22" ry="27.22"/>
<text xml:space="preserve" text-anchor="middle" x="1057.39" y="-299.51" font-family="Times New Roman,serif" font-size="9.00">55937</text>
</g>
<!-- theta&#45;&gt;55937 -->
<g id="edge9" class="edge">
<title>theta&#45;&gt;55937</title>
<path fill="none" stroke="green" stroke-width="0.5" stroke-dasharray="1,5" d="M685.12,-481.02C742.27,-475.04 929.03,-453.31 978.39,-420.48 1008.37,-400.54 1030,-364.96 1042.96,-338.31"/>
<polygon fill="green" stroke="green" stroke-width="0.5" points="1046.12,-339.82 1047.18,-329.27 1039.78,-336.85 1046.12,-339.82"/>
</g>
<!-- 50720 -->
<g id="node18" class="node">
<title>50720</title>
<ellipse fill="white" stroke="black" cx="1057.39" cy="-212.36" rx="27.22" ry="27.22"/>
<text xml:space="preserve" text-anchor="middle" x="1057.39" y="-209.06" font-family="Times New Roman,serif" font-size="9.00">50720</text>
</g>
<!-- theta&#45;&gt;50720 -->
<g id="edge58" class="edge">
<title>theta&#45;&gt;50720</title>
<path fill="none" stroke="green" stroke-width="0.2" stroke-dasharray="1,5" d="M684.86,-481.24C745.84,-475.59 958.24,-453.87 1016.39,-420.48 1062.17,-394.19 1075.16,-379.58 1093.39,-330.03 1101.75,-307.32 1099.67,-298.96 1093.39,-275.58 1090.37,-264.33 1084.76,-253 1078.85,-243.15"/>
<polygon fill="green" stroke="green" stroke-width="0.2" points="1081.88,-241.4 1073.57,-234.83 1075.97,-245.15 1081.88,-241.4"/>
</g>
<!-- theta&#45;&gt;34 -->
<g id="edge46" class="edge">
<title>theta&#45;&gt;34</title>
<path fill="none" stroke="red" stroke-width="0.6" stroke-dasharray="1,5" d="M651.83,-476.62C610.81,-461.57 504.23,-422.45 454.14,-404.07"/>
<polygon fill="red" stroke="red" stroke-width="0.6" points="455.52,-400.85 444.93,-400.69 453.11,-407.42 455.52,-400.85"/>
</g>
<!-- vx -->
<g id="node4" class="node">
<title>vx</title>
<polygon fill="lightgray" stroke="black" points="225.89,-492.95 200.89,-492.95 200.89,-474.45 225.89,-474.45 225.89,-492.95"/>
<text xml:space="preserve" text-anchor="middle" x="213.39" y="-480.4" font-family="Times New Roman,serif" font-size="9.00">vx</text>
</g>
<!-- vx&#45;&gt;Left -->
<g id="edge13" class="edge">
<title>vx&#45;&gt;Left</title>
<path fill="none" stroke="red" stroke-width="0.2" stroke-dasharray="1,5" d="M213.49,-474.22C213.62,-462.87 213.85,-442.14 214.05,-424.63"/>
<polygon fill="red" stroke="red" stroke-width="0.2" points="217.54,-425.14 214.16,-415.1 210.54,-425.06 217.54,-425.14"/>
</g>
<!-- vx&#45;&gt;Right -->
<g id="edge11" class="edge">
<title>vx&#45;&gt;Right</title>
<path fill="none" stroke="red" stroke-width="0.57" stroke-dasharray="1,5" d="M207.99,-474.27C200.93,-462.69 188.93,-440.96 184.39,-420.48 179.16,-396.85 179.12,-389.65 184.39,-366.03 202.81,-283.54 253.04,-196.34 280.98,-152.21"/>
<polygon fill="red" stroke="red" stroke-width="0.57" points="283.84,-154.23 286.29,-143.93 277.95,-150.46 283.84,-154.23"/>
</g>
<!-- vx&#45;&gt;34 -->
<g id="edge47" class="edge">
<title>vx&#45;&gt;34</title>
<path fill="none" stroke="red" stroke-width="0.22" stroke-dasharray="1,5" d="M218.28,-474.28C222.02,-468.52 227.67,-461.11 234.39,-456.48 286.29,-420.69 360.02,-404.52 399.65,-398.04"/>
<polygon fill="red" stroke="red" stroke-width="0.22" points="399.97,-401.53 409.32,-396.54 398.9,-394.61 399.97,-401.53"/>
</g>
<!-- vy -->
<g id="node5" class="node">
<title>vy</title>
<polygon fill="lightgray" stroke="black" points="1217.89,-492.95 1192.89,-492.95 1192.89,-474.45 1217.89,-474.45 1217.89,-492.95"/>
<text xml:space="preserve" text-anchor="middle" x="1205.39" y="-480.4" font-family="Times New Roman,serif" font-size="9.00">vy</text>
</g>
<!-- vy&#45;&gt;No&#45;Op -->
<g id="edge12" class="edge">
<title>vy&#45;&gt;No&#45;Op</title>
<path fill="none" stroke="green" stroke-width="0.17" stroke-dasharray="1,5" d="M1218.29,-482.47C1251.7,-481.12 1341.53,-472.59 1385.39,-420.48 1419.22,-380.29 1404.39,-356.34 1404.39,-303.81 1404.39,-303.81 1404.39,-303.81 1404.39,-211.36 1404.39,-99 518.39,-43.51 318.94,-32.44"/>
<polygon fill="green" stroke="green" stroke-width="0.17" points="319.34,-28.96 309.17,-31.9 318.96,-35.94 319.34,-28.96"/>
</g>
<!-- vy&#45;&gt;Main -->
<g id="edge14" class="edge">
<title>vy&#45;&gt;Main</title>
<path fill="none" stroke="green" stroke-width="0.65" stroke-dasharray="1,5" d="M1193.47,-474.19C1163.06,-452.19 1080.83,-390.92 1021.39,-330.03 999.85,-307.97 1001.24,-296.29 978.39,-275.58 958.48,-257.54 932.76,-241.3 912.81,-229.94"/>
<polygon fill="green" stroke="green" stroke-width="0.65" points="914.55,-226.9 904.11,-225.09 911.14,-233.02 914.55,-226.9"/>
</g>
<!-- vy&#45;&gt;Right -->
<g id="edge15" class="edge">
<title>vy&#45;&gt;Right</title>
<path fill="none" stroke="green" stroke-width="0.46" stroke-dasharray="1,5" d="M1199.66,-474.15C1191.99,-462.43 1178.32,-440.55 1169.39,-420.48 1124.73,-320.05 1180.58,-252.06 1093.39,-185.14 1031,-137.24 463.87,-162.71 386.39,-149.14 368.61,-146.02 349.34,-140.37 333.56,-135.11"/>
<polygon fill="green" stroke="green" stroke-width="0.46" points="334.99,-131.9 324.4,-131.96 332.72,-138.52 334.99,-131.9"/>
</g>
<!-- 46083 -->
<g id="node13" class="node">
<title>46083</title>
<ellipse fill="white" stroke="black" cx="1205.39" cy="-393.26" rx="27.22" ry="27.22"/>
<text xml:space="preserve" text-anchor="middle" x="1205.39" y="-389.96" font-family="Times New Roman,serif" font-size="9.00">46083</text>
</g>
<!-- vy&#45;&gt;46083 -->
<g id="edge35" class="edge">
<title>vy&#45;&gt;46083</title>
<path fill="none" stroke="red" stroke-width="0.45" stroke-dasharray="1,5" d="M1205.39,-474.22C1205.39,-464.31 1205.39,-447.26 1205.39,-431.44"/>
<polygon fill="red" stroke="red" stroke-width="0.45" points="1208.89,-431.47 1205.39,-421.47 1201.89,-431.47 1208.89,-431.47"/>
</g>
<!-- vy&#45;&gt;34 -->
<g id="edge48" class="edge">
<title>vy&#45;&gt;34</title>
<path fill="none" stroke="red" stroke-width="0.5" stroke-dasharray="1,5" d="M1192.54,-481.24C1103.93,-471.17 583.52,-412 455.72,-397.48"/>
<polygon fill="red" stroke="red" stroke-width="0.5" points="456.33,-394.02 446,-396.37 455.54,-400.98 456.33,-394.02"/>
</g>
<!-- 52030 -->
<g id="node22" class="node">
<title>52030</title>
<ellipse fill="white" stroke="black" cx="1277.39" cy="-393.26" rx="27.22" ry="27.22"/>
<text xml:space="preserve" text-anchor="middle" x="1277.39" y="-389.96" font-family="Times New Roman,serif" font-size="9.00">52030</text>
</g>
<!-- vy&#45;&gt;52030 -->
<g id="edge32" class="edge">
<title>vy&#45;&gt;52030</title>
<path fill="none" stroke="red" stroke-width="0.35" stroke-dasharray="1,5" d="M1212.3,-474.22C1221.88,-462.45 1239.68,-440.58 1254.25,-422.68"/>
<polygon fill="red" stroke="red" stroke-width="0.35" points="1256.74,-425.16 1260.34,-415.2 1251.32,-420.74 1256.74,-425.16"/>
</g>
<!-- 27750 -->
<g id="node30" class="node">
<title>27750</title>
<ellipse fill="white" stroke="black" cx="1349.39" cy="-393.26" rx="27.22" ry="27.22"/>
<text xml:space="preserve" text-anchor="middle" x="1349.39" y="-389.96" font-family="Times New Roman,serif" font-size="9.00">27750</text>
</g>
<!-- vy&#45;&gt;27750 -->
<g id="edge59" class="edge">
<title>vy&#45;&gt;27750</title>
<path fill="none" stroke="red" stroke-width="0.16" d="M1218.29,-475.85C1238.82,-464.82 1280,-442.17 1313.39,-420.48 1315.49,-419.11 1317.63,-417.68 1319.78,-416.2"/>
<polygon fill="red" stroke="red" stroke-width="0.16" points="1321.6,-419.2 1327.76,-410.58 1317.57,-413.48 1321.6,-419.2"/>
</g>
<!-- v_theta -->
<g id="node6" class="node">
<title>v_theta</title>
<polygon fill="lightgray" stroke="black" points="285.14,-492.95 243.64,-492.95 243.64,-474.45 285.14,-474.45 285.14,-492.95"/>
<text xml:space="preserve" text-anchor="middle" x="264.39" y="-480.4" font-family="Times New Roman,serif" font-size="9.00">v_theta</text>
</g>
<!-- v_theta&#45;&gt;Left -->
<g id="edge16" class="edge">
<title>v_theta&#45;&gt;Left</title>
<path fill="none" stroke="red" stroke-width="0.29" stroke-dasharray="1,5" d="M259.6,-474.22C252.77,-462.14 239.94,-439.45 229.69,-421.31"/>
<polygon fill="red" stroke="red" stroke-width="0.29" points="232.79,-419.69 224.82,-412.7 226.7,-423.13 232.79,-419.69"/>
</g>
<!-- v_theta&#45;&gt;Right -->
<g id="edge18" class="edge">
<title>v_theta&#45;&gt;Right</title>
<path fill="none" stroke="red" stroke-width="0.17" stroke-dasharray="1,5" d="M264.14,-474.33C263.24,-438.95 261.2,-298.22 281.39,-185.14 283.13,-175.42 285.89,-165.09 288.78,-155.69"/>
<polygon fill="red" stroke="red" stroke-width="0.17" points="292.11,-156.77 291.84,-146.18 285.45,-154.62 292.11,-156.77"/>
</g>
<!-- v_theta&#45;&gt;34 -->
<g id="edge49" class="edge">
<title>v_theta&#45;&gt;34</title>
<path fill="none" stroke="red" stroke-width="0.44" stroke-dasharray="1,5" d="M276.09,-473.99C283.46,-468.66 293.28,-461.85 302.39,-456.48 335.75,-436.8 376.17,-417.44 401.83,-405.68"/>
<polygon fill="red" stroke="red" stroke-width="0.44" points="402.96,-409.01 410.62,-401.68 400.07,-402.63 402.96,-409.01"/>
</g>
<!-- speed -->
<g id="node7" class="node">
<title>speed</title>
<polygon fill="lightgray" stroke="black" points="163.52,-492.95 127.27,-492.95 127.27,-474.45 163.52,-474.45 163.52,-492.95"/>
<text xml:space="preserve" text-anchor="middle" x="145.39" y="-480.4" font-family="Times New Roman,serif" font-size="9.00">speed</text>
</g>
<!-- speed&#45;&gt;No&#45;Op -->
<g id="edge19" class="edge">
<title>speed&#45;&gt;No&#45;Op</title>
<path fill="none" stroke="red" stroke-width="0.53" stroke-dasharray="1,5" d="M130.42,-473.99C93.37,-451.18 0.39,-385.76 0.39,-303.81 0.39,-303.81 0.39,-303.81 0.39,-211.36 0.39,-157.59 -5.87,-132.47 32.39,-94.69 61.55,-65.91 177.44,-45.14 239.56,-35.82"/>
<polygon fill="red" stroke="red" stroke-width="0.53" points="239.97,-39.3 249.35,-34.38 238.95,-32.37 239.97,-39.3"/>
</g>
<!-- speed&#45;&gt;Left -->
<g id="edge20" class="edge">
<title>speed&#45;&gt;Left</title>
<path fill="none" stroke="red" stroke-width="0.14" stroke-dasharray="1,5" d="M152.01,-474.22C161.89,-461.55 180.91,-437.18 195.36,-418.66"/>
<polygon fill="red" stroke="red" stroke-width="0.14" points="198.1,-420.83 201.49,-410.79 192.58,-416.52 198.1,-420.83"/>
</g>
<!-- 46731 -->
<g id="node16" class="node">
<title>46731</title>
<ellipse fill="white" stroke="black" cx="93.39" cy="-302.81" rx="27.22" ry="27.22"/>
<text xml:space="preserve" text-anchor="middle" x="93.39" y="-299.51" font-family="Times New Roman,serif" font-size="9.00">46731</text>
</g>
<!-- speed&#45;&gt;46731 -->
<g id="edge54" class="edge">
<title>speed&#45;&gt;46731</title>
<path fill="none" stroke="red" stroke-width="0.22" stroke-dasharray="1,5" d="M142.88,-474.07C135.9,-450.04 115.92,-381.3 103.58,-338.87"/>
<polygon fill="red" stroke="red" stroke-width="0.22" points="107.02,-338.15 100.87,-329.53 100.3,-340.11 107.02,-338.15"/>
</g>
<!-- speed&#45;&gt;34 -->
<g id="edge50" class="edge">
<title>speed&#45;&gt;34</title>
<path fill="none" stroke="red" stroke-width="0.11" stroke-dasharray="1,5" d="M158.22,-474.18C167.2,-468.52 179.65,-461.28 191.39,-456.48 264.02,-426.8 355.04,-407.5 399.86,-399.09"/>
<polygon fill="red" stroke="red" stroke-width="0.11" points="400.34,-402.56 409.55,-397.31 399.08,-395.68 400.34,-402.56"/>
</g>
<!-- 38912 -->
<g id="node12" class="node">
<title>38912</title>
<ellipse fill="white" stroke="black" cx="854.39" cy="-393.26" rx="27.22" ry="27.22"/>
<text xml:space="preserve" text-anchor="middle" x="854.39" y="-389.96" font-family="Times New Roman,serif" font-size="9.00">38912</text>
</g>
<!-- 38912&#45;&gt;Main -->
<g id="edge31" class="edge">
<title>38912&#45;&gt;Main</title>
<path fill="none" stroke="red" stroke-width="0.36" stroke-dasharray="1,5" d="M858.38,-365.86C863.13,-334.33 871.1,-281.52 876.3,-247.07"/>
<polygon fill="red" stroke="red" stroke-width="0.36" points="879.71,-247.95 877.74,-237.54 872.79,-246.9 879.71,-247.95"/>
</g>
<!-- 65798 -->
<g id="node15" class="node">
<title>65798</title>
<ellipse fill="white" stroke="black" cx="909.39" cy="-302.81" rx="27.22" ry="27.22"/>
<text xml:space="preserve" text-anchor="middle" x="909.39" y="-299.51" font-family="Times New Roman,serif" font-size="9.00">65798</text>
</g>
<!-- 38912&#45;&gt;65798 -->
<g id="edge56" class="edge">
<title>38912&#45;&gt;65798</title>
<path fill="none" stroke="red" stroke-width="0.29" stroke-dasharray="1,5" d="M868.56,-369.48C875.03,-359.06 882.82,-346.54 889.84,-335.24"/>
<polygon fill="red" stroke="red" stroke-width="0.29" points="892.74,-337.22 895.05,-326.88 886.79,-333.52 892.74,-337.22"/>
</g>
<!-- 53970 -->
<g id="node24" class="node">
<title>53970</title>
<ellipse fill="white" stroke="black" cx="781.39" cy="-212.36" rx="27.22" ry="27.22"/>
<text xml:space="preserve" text-anchor="middle" x="781.39" y="-209.06" font-family="Times New Roman,serif" font-size="9.00">53970</text>
</g>
<!-- 38912&#45;&gt;53970 -->
<g id="edge22" class="edge">
<title>38912&#45;&gt;53970</title>
<path fill="none" stroke="green" stroke-width="0.16" d="M844.39,-367.76C831.69,-336.62 809.68,-282.69 795.33,-247.53"/>
<polygon fill="green" stroke="green" stroke-width="0.16" points="798.61,-246.3 791.59,-238.36 792.13,-248.94 798.61,-246.3"/>
</g>
<!-- 55937&#45;&gt;50720 -->
<g id="edge10" class="edge">
<title>55937&#45;&gt;50720</title>
<path fill="none" stroke="red" stroke-width="0.44" stroke-dasharray="1,5" d="M1057.39,-275.27C1057.39,-267.49 1057.39,-258.83 1057.39,-250.51"/>
<polygon fill="red" stroke="red" stroke-width="0.44" points="1060.89,-250.55 1057.39,-240.55 1053.89,-250.55 1060.89,-250.55"/>
</g>
<!-- 65798&#45;&gt;Main -->
<g id="edge57" class="edge">
<title>65798&#45;&gt;Main</title>
<path fill="none" stroke="green" stroke-width="0.7" stroke-dasharray="1,5" d="M901.44,-276.7C898.47,-267.32 895.06,-256.53 891.89,-246.53"/>
<polygon fill="green" stroke="green" stroke-width="0.7" points="895.27,-245.6 888.91,-237.12 888.6,-247.71 895.27,-245.6"/>
</g>
<!-- 46731&#45;&gt;No&#45;Op -->
<g id="edge55" class="edge">
<title>46731&#45;&gt;No&#45;Op</title>
<path fill="none" stroke="red" stroke-width="0.57" stroke-dasharray="1,5" d="M77.37,-280.6C69.7,-269.11 61.34,-254.29 57.39,-239.58 40.7,-177.39 18.71,-146.18 57.39,-94.69 79.3,-65.53 182.03,-45.34 239.76,-36.08"/>
<polygon fill="red" stroke="red" stroke-width="0.57" points="240.13,-39.56 249.47,-34.56 239.05,-32.65 240.13,-39.56"/>
</g>
<!-- 59218 -->
<g id="node25" class="node">
<title>59218</title>
<ellipse fill="white" stroke="black" cx="93.39" cy="-212.36" rx="27.22" ry="27.22"/>
<text xml:space="preserve" text-anchor="middle" x="93.39" y="-209.06" font-family="Times New Roman,serif" font-size="9.00">59218</text>
</g>
<!-- 46731&#45;&gt;59218 -->
<g id="edge38" class="edge">
<title>46731&#45;&gt;59218</title>
<path fill="none" stroke="green" stroke-width="0.13" stroke-dasharray="1,5" d="M93.39,-275.27C93.39,-267.31 93.39,-258.44 93.39,-249.95"/>
<polygon fill="green" stroke="green" stroke-width="0.13" points="96.89,-250.08 93.39,-240.08 89.89,-250.08 96.89,-250.08"/>
</g>
<!-- 40205 -->
<g id="node17" class="node">
<title>40205</title>
<ellipse fill="white" stroke="black" cx="723.39" cy="-302.81" rx="27.22" ry="27.22"/>
<text xml:space="preserve" text-anchor="middle" x="723.39" y="-299.51" font-family="Times New Roman,serif" font-size="9.00">40205</text>
</g>
<!-- 40205&#45;&gt;Main -->
<g id="edge62" class="edge">
<title>40205&#45;&gt;Main</title>
<path fill="none" stroke="red" stroke-width="0.57" stroke-dasharray="1,5" d="M745.75,-287.05C751.74,-283.22 758.26,-279.17 764.39,-275.58 792.89,-258.93 826.21,-241.39 849.98,-229.2"/>
<polygon fill="red" stroke="red" stroke-width="0.57" points="851.45,-232.37 858.77,-224.71 848.27,-226.14 851.45,-232.37"/>
</g>
<!-- 40205&#45;&gt;53970 -->
<g id="edge42" class="edge">
<title>40205&#45;&gt;53970</title>
<path fill="none" stroke="green" stroke-width="0.26" stroke-dasharray="1,5" d="M738.03,-279.49C745.03,-268.8 753.54,-255.84 761.15,-244.23"/>
<polygon fill="green" stroke="green" stroke-width="0.26" points="763.99,-246.28 766.55,-236 758.14,-242.44 763.99,-246.28"/>
</g>
<!-- 50720&#45;&gt;No&#45;Op -->
<g id="edge60" class="edge">
<title>50720&#45;&gt;No&#45;Op</title>
<path fill="none" stroke="red" stroke-width="0.47" stroke-dasharray="1,5" d="M1031.83,-202.01C971.68,-180.31 816.16,-126.01 682.39,-94.69 550.83,-63.89 391.63,-43.27 318.99,-34.76"/>
<polygon fill="red" stroke="red" stroke-width="0.47" points="319.54,-31.3 309.2,-33.62 318.73,-38.25 319.54,-31.3"/>
</g>
<!-- 34&#45;&gt;No&#45;Op -->
<g id="edge51" class="edge">
<title>34&#45;&gt;No&#45;Op</title>
<path fill="none" stroke="green" stroke-width="0.63" stroke-dasharray="1,5" d="M409.85,-389.44C380.77,-383.79 322.99,-368.17 294.39,-330.03 236.46,-252.77 254.56,-130.27 268.96,-68.55"/>
<polygon fill="green" stroke="green" stroke-width="0.63" points="272.31,-69.58 271.27,-59.04 265.51,-67.93 272.31,-69.58"/>
</g>
<!-- 34&#45;&gt;Main -->
<g id="edge52" class="edge">
<title>34&#45;&gt;Main</title>
<path fill="none" stroke="green" stroke-width="0.85" stroke-dasharray="1,5" d="M443.69,-385.57C470.78,-374.42 526.69,-351.13 573.39,-330.03 624.56,-306.92 634.8,-295.25 687.39,-275.58 743.55,-254.58 760.66,-258.98 817.39,-239.58 827.74,-236.05 838.82,-231.71 848.81,-227.58"/>
<polygon fill="green" stroke="green" stroke-width="0.85" points="850.08,-230.84 857.95,-223.74 847.37,-224.39 850.08,-230.84"/>
</g>
<!-- 34&#45;&gt;Right -->
<g id="edge53" class="edge">
<title>34&#45;&gt;Right</title>
<path fill="none" stroke="red" stroke-width="0.24" stroke-dasharray="1,5" d="M410.45,-387.85C385.76,-380.46 340.52,-363.01 319.39,-330.03 285.56,-277.23 288.89,-200.74 294.53,-157.01"/>
<polygon fill="red" stroke="red" stroke-width="0.24" points="297.97,-157.64 295.9,-147.25 291.04,-156.66 297.97,-157.64"/>
</g>
<!-- 34&#45;&gt;55937 -->
<g id="edge43" class="edge">
<title>34&#45;&gt;55937</title>
<path fill="none" stroke="green" stroke-width="0.19" stroke-dasharray="1,5" d="M445.23,-390.38C524.54,-382 845.6,-347.65 945.39,-330.03 971.03,-325.5 999.6,-318.79 1021.46,-313.29"/>
<polygon fill="green" stroke="green" stroke-width="0.19" points="1022.2,-316.71 1031.03,-310.85 1020.47,-309.93 1022.2,-316.71"/>
</g>
<!-- 34&#45;&gt;40205 -->
<g id="edge61" class="edge">
<title>34&#45;&gt;40205</title>
<path fill="none" stroke="green" stroke-width="0.6" stroke-dasharray="1,5" d="M444.15,-387.25C490.84,-373.3 623.14,-333.76 687.44,-314.55"/>
<polygon fill="green" stroke="green" stroke-width="0.6" points="688.07,-318.02 696.65,-311.8 686.07,-311.31 688.07,-318.02"/>
</g>
<!-- 58560 -->
<g id="node23" class="node">
<title>58560</title>
<ellipse fill="white" stroke="black" cx="537.39" cy="-302.81" rx="27.22" ry="27.22"/>
<text xml:space="preserve" text-anchor="middle" x="537.39" y="-299.51" font-family="Times New Roman,serif" font-size="9.00">58560</text>
</g>
<!-- 34&#45;&gt;58560 -->
<g id="edge25" class="edge">
<title>34&#45;&gt;58560</title>
<path fill="none" stroke="green" stroke-width="0.41" d="M440.88,-381.41C457.67,-367.91 486.79,-344.5 508.66,-326.91"/>
<polygon fill="green" stroke="green" stroke-width="0.41" points="510.57,-329.86 516.17,-320.87 506.19,-324.41 510.57,-329.86"/>
</g>
<!-- 79570 -->
<g id="node26" class="node">
<title>79570</title>
<ellipse fill="white" stroke="black" cx="355.39" cy="-302.81" rx="27.22" ry="27.22"/>
<text xml:space="preserve" text-anchor="middle" x="355.39" y="-299.51" font-family="Times New Roman,serif" font-size="9.00">79570</text>
</g>
<!-- 34&#45;&gt;79570 -->
<g id="edge17" class="edge">
<title>34&#45;&gt;79570</title>
<path fill="none" stroke="green" stroke-width="0.25" d="M416.46,-378.82C406.47,-366.56 391.39,-348.02 378.71,-332.45"/>
<polygon fill="green" stroke="green" stroke-width="0.25" points="381.6,-330.46 372.57,-324.91 376.17,-334.88 381.6,-330.46"/>
</g>
<!-- 63193 -->
<g id="node27" class="node">
<title>63193</title>
<ellipse fill="white" stroke="black" cx="427.39" cy="-302.81" rx="27.22" ry="27.22"/>
<text xml:space="preserve" text-anchor="middle" x="427.39" y="-299.51" font-family="Times New Roman,serif" font-size="9.00">63193</text>
</g>
<!-- 34&#45;&gt;63193 -->
<g id="edge40" class="edge">
<title>34&#45;&gt;63193</title>
<path fill="none" stroke="green" stroke-width="0.39" stroke-dasharray="1,5" d="M427.39,-375.2C427.39,-365.34 427.39,-352.54 427.39,-340.5"/>
<polygon fill="green" stroke="green" stroke-width="0.39" points="430.89,-340.81 427.39,-330.81 423.89,-340.81 430.89,-340.81"/>
</g>
<!-- 23137 -->
<g id="node28" class="node">
<title>23137</title>
<ellipse fill="white" stroke="black" cx="422.39" cy="-212.36" rx="27.22" ry="27.22"/>
<text xml:space="preserve" text-anchor="middle" x="422.39" y="-209.06" font-family="Times New Roman,serif" font-size="9.00">23137</text>
</g>
<!-- 34&#45;&gt;23137 -->
<g id="edge28" class="edge">
<title>34&#45;&gt;23137</title>
<path fill="none" stroke="green" stroke-width="0.63" stroke-dasharray="1,5" d="M437.95,-378.86C446.7,-366.85 458.47,-348.35 463.39,-330.03 469.67,-306.66 470.34,-298.76 463.39,-275.58 459.84,-263.72 453.21,-252.04 446.3,-242.05"/>
<polygon fill="green" stroke="green" stroke-width="0.63" points="449.26,-240.16 440.52,-234.16 443.61,-244.3 449.26,-240.16"/>
</g>
<!-- 36270 -->
<g id="node20" class="node">
<title>36270</title>
<ellipse fill="white" stroke="black" cx="723.39" cy="-393.26" rx="27.22" ry="27.22"/>
<text xml:space="preserve" text-anchor="middle" x="723.39" y="-389.96" font-family="Times New Roman,serif" font-size="9.00">36270</text>
</g>
<!-- 36270&#45;&gt;40205 -->
<g id="edge24" class="edge">
<title>36270&#45;&gt;40205</title>
<path fill="none" stroke="green" stroke-width="0.12" d="M723.39,-365.72C723.39,-357.76 723.39,-348.89 723.39,-340.4"/>
<polygon fill="green" stroke="green" stroke-width="0.12" points="726.89,-340.52 723.39,-330.52 719.89,-340.52 726.89,-340.52"/>
</g>
<!-- 41519 -->
<g id="node21" class="node">
<title>41519</title>
<ellipse fill="white" stroke="black" cx="422.39" cy="-121.91" rx="27.22" ry="27.22"/>
<text xml:space="preserve" text-anchor="middle" x="422.39" y="-118.61" font-family="Times New Roman,serif" font-size="9.00">41519</text>
</g>
<!-- 41519&#45;&gt;No&#45;Op -->
<g id="edge27" class="edge">
<title>41519&#45;&gt;No&#45;Op</title>
<path fill="none" stroke="red" stroke-width="0.23" stroke-dasharray="1,5" d="M399.73,-106.56C376.24,-91.68 339.28,-68.27 312.51,-51.32"/>
<polygon fill="red" stroke="red" stroke-width="0.23" points="314.48,-48.42 304.16,-46.03 310.73,-54.34 314.48,-48.42"/>
</g>
<!-- 58560&#45;&gt;23137 -->
<g id="edge26" class="edge">
<title>58560&#45;&gt;23137</title>
<path fill="none" stroke="red" stroke-width="0.38" stroke-dasharray="1,5" d="M516.03,-285.38C497.96,-271.48 471.87,-251.42 451.82,-236"/>
<polygon fill="red" stroke="red" stroke-width="0.38" points="454.16,-233.38 444.1,-230.06 449.89,-238.93 454.16,-233.38"/>
</g>
<!-- 59218&#45;&gt;No&#45;Op -->
<g id="edge39" class="edge">
<title>59218&#45;&gt;No&#45;Op</title>
<path fill="none" stroke="red" stroke-width="0.15" stroke-dasharray="1,5" d="M107.29,-188.39C125.46,-158.81 156.81,-109.45 172.39,-94.69 193.32,-74.86 221.38,-58.27 243.52,-46.9"/>
<polygon fill="red" stroke="red" stroke-width="0.15" points="245.03,-50.06 252.41,-42.45 241.9,-43.8 245.03,-50.06"/>
</g>
<!-- 76259 -->
<g id="node29" class="node">
<title>76259</title>
<ellipse fill="white" stroke="black" cx="93.39" cy="-121.91" rx="27.22" ry="27.22"/>
<text xml:space="preserve" text-anchor="middle" x="93.39" y="-118.61" font-family="Times New Roman,serif" font-size="9.00">76259</text>
</g>
<!-- 59218&#45;&gt;76259 -->
<g id="edge37" class="edge">
<title>59218&#45;&gt;76259</title>
<path fill="none" stroke="green" stroke-width="0.41" stroke-dasharray="1,5" d="M93.39,-184.82C93.39,-176.95 93.39,-168.19 93.39,-159.78"/>
<polygon fill="green" stroke="green" stroke-width="0.41" points="96.89,-160.06 93.39,-150.06 89.89,-160.06 96.89,-160.06"/>
</g>
<!-- 79570&#45;&gt;23137 -->
<g id="edge21" class="edge">
<title>79570&#45;&gt;23137</title>
<path fill="none" stroke="red" stroke-width="0.4" d="M371.61,-280.4C380.17,-269.1 390.8,-255.06 400.12,-242.76"/>
<polygon fill="red" stroke="red" stroke-width="0.4" points="402.71,-245.14 405.96,-235.05 397.13,-240.91 402.71,-245.14"/>
</g>
<!-- 63193&#45;&gt;23137 -->
<g id="edge41" class="edge">
<title>63193&#45;&gt;23137</title>
<path fill="none" stroke="red" stroke-width="0.72" stroke-dasharray="1,5" d="M425.89,-275.27C425.46,-267.57 424.97,-259.02 424.51,-250.79"/>
<polygon fill="red" stroke="red" stroke-width="0.72" points="428.01,-250.76 423.95,-240.97 421.02,-251.15 428.01,-250.76"/>
</g>
<!-- 23137&#45;&gt;No&#45;Op -->
<g id="edge29" class="edge">
<title>23137&#45;&gt;No&#45;Op</title>
<path fill="none" stroke="green" stroke-width="0.41" stroke-dasharray="1,5" d="M406.88,-189.99C389.59,-166.36 360.61,-127.33 334.39,-94.69 325.15,-83.19 314.7,-70.81 305.41,-60.01"/>
<polygon fill="green" stroke="green" stroke-width="0.41" points="308.16,-57.85 298.97,-52.57 302.87,-62.43 308.16,-57.85"/>
</g>
<!-- 23137&#45;&gt;Right -->
<g id="edge30" class="edge">
<title>23137&#45;&gt;Right</title>
<path fill="none" stroke="red" stroke-width="0.26" stroke-dasharray="1,5" d="M400.58,-195.55C380.49,-180.98 350.57,-159.29 328.66,-143.41"/>
<polygon fill="red" stroke="red" stroke-width="0.26" points="330.87,-140.68 320.72,-137.65 326.76,-146.35 330.87,-140.68"/>
</g>
<!-- 23137&#45;&gt;41519 -->
<g id="edge33" class="edge">
<title>23137&#45;&gt;41519</title>
<path fill="none" stroke="green" stroke-width="0.32" stroke-dasharray="1,5" d="M422.39,-184.82C422.39,-176.95 422.39,-168.19 422.39,-159.78"/>
<polygon fill="green" stroke="green" stroke-width="0.32" points="425.89,-159.91 422.39,-149.91 418.89,-159.91 425.89,-159.91"/>
</g>
<!-- 76259&#45;&gt;No&#45;Op -->
<g id="edge36" class="edge">
<title>76259&#45;&gt;No&#45;Op</title>
<path fill="none" stroke="red" stroke-width="0.51" d="M115.58,-105.86C121.58,-102.03 128.14,-98.05 134.39,-94.69 169.98,-75.56 212.39,-57.22 242.13,-45.05"/>
<polygon fill="red" stroke="red" stroke-width="0.51" points="243.42,-48.31 251.37,-41.3 240.79,-41.82 243.42,-48.31"/>
</g>
<!-- 27750&#45;&gt;Main -->
<g id="edge34" class="edge">
<title>27750&#45;&gt;Main</title>
<path fill="none" stroke="green" stroke-width="0.77" stroke-dasharray="1,5" d="M1328.25,-375.57C1323.5,-372.19 1318.39,-368.82 1313.39,-366.03 1175.7,-289.05 992.08,-239.72 916.33,-221.39"/>
<polygon fill="green" stroke="green" stroke-width="0.77" points="917.21,-218.01 906.67,-219.09 915.58,-224.81 917.21,-218.01"/>
</g>
<!-- 27750&#45;&gt;55937 -->
<g id="edge7" class="edge">
<title>27750&#45;&gt;55937</title>
<path fill="none" stroke="red" stroke-width="0.13" d="M1329,-375.11C1324.13,-371.68 1318.77,-368.4 1313.39,-366.03 1239.93,-333.66 1213.96,-350.71 1136.39,-330.03 1121.78,-326.14 1105.92,-321.05 1092.27,-316.39"/>
<polygon fill="red" stroke="red" stroke-width="0.13" points="1093.56,-313.13 1082.96,-313.16 1091.27,-319.74 1093.56,-313.13"/>
</g>
<!-- 27750&#45;&gt;41519 -->
<g id="edge23" class="edge">
<title>27750&#45;&gt;41519</title>
<path fill="none" stroke="green" stroke-width="0.11" stroke-dasharray="1,5" d="M1340.08,-367.38C1321.65,-322.05 1275.81,-226.84 1202.39,-185.14 1137.29,-148.16 605.86,-128.72 459.55,-124.04"/>
<polygon fill="green" stroke="green" stroke-width="0.11" points="459.98,-120.55 449.87,-123.73 459.75,-127.55 459.98,-120.55"/>
</g>
<!-- 29042 -->
<g id="node31" class="node">
<title>29042</title>
<ellipse fill="white" stroke="black" cx="469.39" cy="-483.7" rx="27.22" ry="27.22"/>
<text xml:space="preserve" text-anchor="middle" x="469.39" y="-480.4" font-family="Times New Roman,serif" font-size="9.00">29042</text>
</g>
<!-- 29042&#45;&gt;34 -->
<g id="edge63" class="edge">
<title>29042&#45;&gt;34</title>
<path fill="none" stroke="red" stroke-width="0.13" stroke-dasharray="1,5" d="M457.91,-458.53C452.03,-446.14 444.88,-431.09 438.98,-418.66"/>
<polygon fill="red" stroke="red" stroke-width="0.13" points="442.29,-417.47 434.84,-409.93 435.96,-420.47 442.29,-417.47"/>
</g>
</g>
</svg>
